<?xml version="1.0" encoding="UTF-8"?>
<svg version="1.1" xmlns="http://www.w3.org/2000/svg" width="1344" height="752">
<path d="M0 0 C443.52 0 887.04 0 1344 0 C1344 248.16 1344 496.32 1344 752 C900.48 752 456.96 752 0 752 C0 503.84 0 255.68 0 0 Z " fill="#FEFEFE" transform="translate(0,0)"/>
<path d="M0 0 C1.74307434 0.00022659 1.74307434 0.00022659 3.5213623 0.00045776 C35.07153461 0.08035273 66.07899959 3.84802615 96.1875 13.5625 C97.77739746 14.06305908 97.77739746 14.06305908 99.39941406 14.57373047 C115.57406177 19.71367407 130.95636473 26.09563794 146.1875 33.5625 C147.07743652 33.99256348 147.96737305 34.42262695 148.88427734 34.86572266 C221.39078089 70.15554477 278.78893075 136.79282136 305.22265625 212.70751953 C311.42426819 231.05813949 316.07038443 249.44902393 319.1875 268.5625 C319.35121094 269.48417969 319.51492188 270.40585937 319.68359375 271.35546875 C326.8973672 312.67071667 322.75973496 356.38801076 312.85742188 396.8203125 C312.30429142 399.08443835 311.77743706 401.351328 311.265625 403.625 C298.40180503 457.02198854 266.91608911 505.44342235 229.1875 544.5625 C228.2903125 545.5009375 227.393125 546.439375 226.46875 547.40625 C221.58848755 552.4100634 216.47935672 556.93571902 211.015625 561.29296875 C208.14509026 563.59653323 205.35764786 565.98079548 202.5625 568.375 C139.89635239 620.54295278 54.57484543 644.92971259 -26.25 637.8125 C-69.79252812 633.42842906 -111.17461946 621.08165517 -149.8125 600.5625 C-150.45171387 600.22428223 -151.09092773 599.88606445 -151.74951172 599.53759766 C-181.17137971 583.82887857 -211.73190325 562.34744064 -233.16796875 536.515625 C-235.17273174 534.13467133 -237.30735872 531.89443281 -239.4375 529.625 C-258.22328668 508.96063466 -273.69398942 484.70728717 -285.81396484 459.59887695 C-286.52322073 458.15244582 -287.24931058 456.71421567 -287.98681641 455.28198242 C-297.0782726 437.56761066 -303.17485861 418.50149511 -308.11474609 399.26611328 C-308.71525701 396.93929108 -309.3448318 394.62377759 -309.98828125 392.30859375 C-316.3830822 368.40500105 -318.03767892 342.71288688 -318 318.0625 C-317.99906342 317.26714844 -317.99812683 316.47179687 -317.99716187 315.65234375 C-317.81032665 242.25831538 -291.02091639 167.38844071 -242.18408203 112.12280273 C-241.2225298 111.02894722 -240.27120094 109.92605975 -239.32763672 108.81665039 C-234.49211949 103.17088461 -229.31623887 97.880079 -224.06201172 92.62670898 C-222.57356763 91.13608385 -221.09332723 89.63762983 -219.61328125 88.13867188 C-213.34412009 81.83212771 -206.82863238 76.04495862 -199.8125 70.5625 C-199.11286133 70.01424561 -198.41322266 69.46599121 -197.69238281 68.90112305 C-140.83081686 24.90041559 -72.09067153 -0.18064754 0 0 Z " fill="#DA0814" transform="translate(681.8125,57.4375)"/>
<path d="M0 0 C4.21507138 1.64085571 7.01715722 4.76403699 10.12109375 7.92578125 C10.7028688 8.5103862 11.28464386 9.09499115 11.88404846 9.6973114 C13.73995842 11.56438702 15.58880352 13.43828434 17.4375 15.3125 C18.67727058 16.5623092 19.91750025 17.81166318 21.15820312 19.06054688 C23.44744394 21.3660834 25.73395135 23.67425764 28.01733398 25.9855957 C33.58055835 31.68324337 33.58055835 31.68324337 39.5 37 C43.26330496 40.19187037 46.80891598 43.43926922 49.8125 47.375 C51.68181137 49.61817365 53.45730341 51.32131725 55.66609192 53.20053101 C59.79470141 56.77836459 63.67899111 60.54403254 67.5300293 64.41650391 C68.2351767 65.12150528 68.9403241 65.82650665 69.6668396 66.5528717 C71.97168084 68.85840337 74.2729691 71.16744638 76.57421875 73.4765625 C78.18726512 75.09147712 79.80053478 76.70616876 81.41401672 78.32064819 C85.64419869 82.55463141 89.87137034 86.79160755 94.09790039 91.02923584 C98.39743865 95.33900917 102.69981024 99.64595196 107.00195312 103.953125 C113.94790286 110.90784573 120.89212242 117.86428833 127.83409119 124.82298279 C129.02441051 126.01612422 130.21514123 127.20885543 131.40637779 128.40108109 C132.86626315 129.86581865 134.31880249 131.33786841 135.77058411 132.81063843 C138.01261984 135.0963583 138.01261984 135.0963583 140.8125 137.1875 C141.534375 137.785625 142.25625 138.38375 143 139 C143 139.66 143 140.32 143 141 C143.88475604 141.39698861 143.88475604 141.39698861 144.78738594 141.80199718 C147.07857773 143.04254531 148.5699937 144.3260024 150.40182495 146.16804504 C151.05495667 146.81987259 151.70808838 147.47170013 152.38101196 148.14328003 C153.08656219 148.85759186 153.79211243 149.57190369 154.51904297 150.30786133 C155.27076782 151.06090042 156.02249268 151.81393951 156.79699707 152.58979797 C159.28335167 155.08264833 161.76265767 157.58239411 164.2421875 160.08203125 C165.9703666 161.81648168 167.69906248 163.55041734 169.42825317 165.28385925 C173.98400892 169.85292829 178.53417236 174.42752293 183.08276367 179.00372314 C190.35506409 186.31910289 197.63400974 193.62785461 204.9162941 200.9332943 C207.45676994 203.48397147 209.99379037 206.0380486 212.53048706 208.59248352 C214.09426318 210.16309105 215.65815093 211.73358745 217.22216797 213.30395508 C217.92366974 214.01219421 218.62517151 214.72043335 219.34793091 215.45013428 C223.08293204 219.19372864 226.9004392 222.66098243 231 226 C232.6171875 227.7734375 232.6171875 227.7734375 233.875 229.375 C235.96897668 231.91429 238.14895138 234.07701275 240.66157532 236.19992065 C245.1554533 240.08395075 249.35128924 244.21765443 253.53979492 248.42626953 C254.3522316 249.23856018 255.16466827 250.05085083 256.00172424 250.88775635 C258.66368547 253.55040934 261.32209428 256.21657892 263.98046875 258.8828125 C265.84013816 260.74434956 267.70003039 262.60566405 269.56013489 264.46676636 C273.94396384 268.8536907 278.32524142 273.2431538 282.70558101 277.63356197 C287.67644518 282.61560596 292.65014823 287.59481165 297.62409818 292.57377458 C306.13027555 301.08861913 314.63435562 309.60555456 323.13601685 318.12490845 C327.48117947 322.47906964 327.48117947 322.47906964 331.82978821 326.82978821 C333.51420325 328.51420325 335.19640907 330.20065797 336.875 331.89086914 C339.65126458 334.68491251 342.43055811 337.47592072 345.2109375 340.26586914 C346.40454134 341.46452234 347.59724899 342.66406862 348.7890625 343.86450195 C350.523659 345.61127693 352.26150907 347.35475824 354 349.09765625 C354.52722656 349.6300441 355.05445313 350.16243195 355.59765625 350.71095276 C358.58463638 353.6983805 361.66592194 356.40870116 365 359 C367.3125 361.125 367.3125 361.125 369 363 C369 363.66 369 364.32 369 365 C369.86625 365.37125 369.86625 365.37125 370.75 365.75 C373.38288682 367.2127149 375.12450669 368.63826769 377 371 C376.77391639 373.57826009 376.28639784 374.71495013 374.44384766 376.54882812 C373.77401855 377.03802734 373.10418945 377.52722656 372.4140625 378.03125 C371.65802734 378.58844727 370.90199219 379.14564453 370.12304688 379.71972656 C369.29869141 380.3072168 368.47433594 380.89470703 367.625 381.5 C366.77228516 382.11584961 365.91957031 382.73169922 365.04101562 383.36621094 C336.05626107 404.077213 305.32625327 418.4280504 271 428 C269.84371094 428.32613281 268.68742187 428.65226562 267.49609375 428.98828125 C264.67451785 429.73686261 261.8556974 430.3949467 259 431 C257.80761719 431.25394531 256.61523438 431.50789063 255.38671875 431.76953125 C185.50426385 445.7649001 112.23692804 428.85480124 53.1875 390 C42.07739659 382.52941322 31.81342289 374.09536756 22 365 C20.93847022 364.04059208 19.87591093 363.08232243 18.8125 362.125 C-11.21568552 334.97162113 -33.89280307 299.02859517 -47.32519531 260.91015625 C-47.97136582 259.0810542 -48.63757765 257.2590694 -49.3046875 255.4375 C-55.5188152 237.8372377 -58.79860451 219.49137486 -61 201 C-61.08292297 200.35718079 -61.16584595 199.71436157 -61.25128174 199.05206299 C-61.94438414 193.38273712 -62.17407731 187.79450735 -62.203125 182.0859375 C-62.21018463 181.16183075 -62.21724426 180.237724 -62.22451782 179.28561401 C-62.45273087 140.63815964 -62.45273087 140.63815964 -59 124 C-58.80664062 123.03964844 -58.61328125 122.07929688 -58.4140625 121.08984375 C-49.29157778 76.99783426 -30.35547902 33.69497792 0 0 Z " fill="#FDFCFC" transform="translate(479,206)"/>
<path d="M0 0 C1.74171478 0.00364059 1.74171478 0.00364059 3.51861572 0.00735474 C54.79922904 0.21463182 106.49308094 14.34416297 149.1875 43.5 C149.88278809 43.96905762 150.57807617 44.43811523 151.29443359 44.92138672 C161.10063985 51.56472457 170.31954584 58.65298836 179.1875 66.5 C180.05761719 67.25925781 180.92773438 68.01851563 181.82421875 68.80078125 C190.9213943 76.84114206 199.45965315 85.26393963 207.01953125 94.77734375 C208.42546131 96.54298924 209.85912233 98.28703823 211.32421875 100.00390625 C237.5896898 130.89059123 254.91764542 170.37566236 263.5625 209.75 C263.80121826 210.82451416 264.03993652 211.89902832 264.28588867 213.00610352 C267.87582162 230.34035118 268.59812155 247.8482969 268.5625 265.5 C268.56228851 266.47735107 268.56207703 267.45470215 268.56185913 268.46166992 C268.52680098 284.78049358 267.45854404 300.47000275 264.1875 316.5 C264.00558105 317.42490234 263.82366211 318.34980469 263.63623047 319.30273438 C255.54925116 359.45577911 237.53271947 396.52188267 212.1875 428.5 C208.92516879 427.07117786 206.77756091 425.32946748 204.28027344 422.80395508 C203.52558777 422.04589066 202.7709021 421.28782623 201.99334717 420.50679016 C201.18601135 419.68599472 200.37867554 418.86519928 199.546875 418.01953125 C198.70586243 417.17331711 197.86484985 416.32710297 196.99835205 415.45524597 C194.30661663 412.74569471 191.62163474 410.02957923 188.9375 407.3125 C186.26683638 404.61410238 183.59469478 401.91721276 180.91949463 399.22331238 C179.25597403 397.54766586 177.5951324 395.86935397 175.93743896 394.1879425 C172.495265 390.71647008 169.04614094 387.32139059 165.33129883 384.14160156 C160.40802391 379.90618015 155.86645825 375.29113038 151.29582024 370.68348503 C149.67847056 369.05317919 148.05784918 367.42618669 146.43641663 365.79994202 C142.99643037 362.34862317 139.56041683 358.89336646 136.125 355.4375 C132.13561596 351.42439538 128.14455525 347.41298752 124.14923286 343.40579414 C122.56361946 341.81376621 120.98108171 340.21872566 119.39866638 338.6235199 C114.49282394 333.69302635 109.54015896 328.94466214 104.1875 324.5 C102.49987149 322.8545622 100.8334651 321.18711423 99.1875 319.5 C98.3521875 318.68015625 98.3521875 318.68015625 97.5 317.84375 C94.75718104 315.14822102 92.17882046 312.48931749 89.75 309.5 C87.80663859 307.22484517 86.1386223 305.54729666 83.8828125 303.6640625 C77.42859548 298.07799088 71.51063302 291.92829588 65.5 285.875 C64.27823054 284.64820268 63.05622695 283.42163847 61.83398438 282.1953125 C59.59010376 279.94333014 57.34758256 277.69001363 55.10668945 275.43505859 C53.22137566 273.53816113 51.33253366 271.64503366 49.44140625 269.75390625 C47.9589728 268.2714728 46.48222439 266.78332856 45.01171875 265.2890625 C41.42530613 261.65675429 37.82312888 258.12520062 33.9375 254.8125 C30.62274267 251.97407591 27.98370892 248.8554507 25.1875 245.5 C24.09389408 244.52633577 22.98161239 243.57348751 21.85766602 242.63500977 C16.23564765 237.76895709 11.05061695 232.47452351 5.81425285 227.20191765 C3.92804444 225.30279244 2.03859586 223.406943 0.14833069 221.51185608 C-3.86228256 217.48989097 -7.86893509 213.46399482 -11.875 209.4375 C-16.52524631 204.76356137 -21.17715143 200.09129865 -25.83331108 195.4232502 C-27.68482452 193.56530686 -29.53327422 191.70435314 -31.38160706 189.84324646 C-32.52777373 188.69344394 -33.6740829 187.54378345 -34.82055664 186.39428711 C-35.32516418 185.88451324 -35.82977173 185.37473938 -36.34967041 184.84951782 C-39.53422058 181.66450581 -42.84813956 178.69925147 -46.30307674 175.80936527 C-48.75105438 173.68584101 -50.7086475 171.22823637 -52.74609375 168.72265625 C-54.50630767 166.82934487 -56.26034068 165.23788283 -58.22680664 163.57202148 C-63.27009255 159.18193876 -67.96755083 154.45833969 -72.6736145 149.71405029 C-74.28703514 148.08766731 -75.90373271 146.46460304 -77.52124023 144.84228516 C-81.53491101 140.81536577 -85.54306835 136.78297337 -89.5513916 132.75073242 C-92.95055724 129.3317138 -96.35184867 125.91483601 -99.75588989 122.50067139 C-101.33537066 120.91478994 -102.91176797 119.32588904 -104.48803711 117.73681641 C-109.11998431 113.08144412 -113.80039598 108.56306568 -118.78955078 104.29141235 C-123.10770779 100.46749046 -127.13914869 96.33639161 -131.21875 92.26171875 C-132.19373634 91.28995294 -133.16879463 90.31825931 -134.1439209 89.34663391 C-136.169326 87.32716736 -138.19270435 85.30569528 -140.21484375 83.28295898 C-142.81018828 80.68751183 -145.41240566 78.09907128 -148.01633453 75.51224041 C-150.02366316 73.51599171 -152.02646951 71.51525386 -154.02799988 69.51319313 C-154.98650477 68.55586961 -155.94663465 67.60017026 -156.90840149 66.64612389 C-158.24377675 65.32048905 -159.57226811 63.98793041 -160.90039062 62.6550293 C-162.03667908 61.52087837 -162.03667908 61.52087837 -163.19592285 60.36381531 C-164.8125 58.5 -164.8125 58.5 -164.8125 56.5 C-162.80467535 54.88580662 -160.8012084 53.4022239 -158.6875 51.9375 C-158.05440918 51.49349854 -157.42131836 51.04949707 -156.76904297 50.59204102 C-110.03173917 18.04718661 -57.21512059 -0.24245867 0 0 Z " fill="#FDFCFC" transform="translate(682.8125,111.5)"/>
<path d="M0 0 C15.47901825 9.14831378 29.63217203 19.59859521 42.625 32 C43.35589844 32.68964844 44.08679688 33.37929688 44.83984375 34.08984375 C60.91261764 49.65338124 76.09883921 70.73647485 77.02905273 93.83300781 C77.05488913 95.87290703 77.06403605 97.91306943 77.05859375 99.953125 C77.06890373 101.63018524 77.06890373 101.63018524 77.079422 103.34112549 C77.09312359 106.97770131 77.08048385 110.61345068 77.0625 114.25 C77.06012329 115.50321045 77.05774658 116.7564209 77.05529785 118.04760742 C76.98115089 143.18581755 75.30371847 168.01743193 72.625 193 C72.45765274 194.59812441 72.29049033 196.19626818 72.12353516 197.79443359 C70.56408013 212.55208748 68.55349783 227.23580204 66.125 241.875 C65.93558838 243.03990967 65.74617676 244.20481934 65.55102539 245.4050293 C62.13977183 264.95573158 62.13977183 264.95573158 54.40625 270.87890625 C52.53299584 272.05790613 50.62274383 273.04931928 48.625 274 C47.779375 273.14277344 46.93375 272.28554688 46.0625 271.40234375 C44.9168054 270.24725821 43.77096412 269.09231815 42.625 267.9375 C42.07199219 267.37611328 41.51898437 266.81472656 40.94921875 266.23632812 C38.09551539 263.36622417 35.20380062 260.60958882 32.11547852 257.99267578 C27.09480481 253.61892856 22.41994286 248.90805409 17.73332024 244.18348503 C16.11597056 242.55317919 14.49534918 240.92618669 12.87391663 239.29994202 C9.43393037 235.84862317 5.99791683 232.39336646 2.5625 228.9375 C-1.42688404 224.92439538 -5.41794475 220.91298752 -9.41326714 216.90579414 C-10.99888054 215.31376621 -12.58141829 213.71872566 -14.16383362 212.1235199 C-19.06967606 207.19302635 -24.02234104 202.44466214 -29.375 198 C-31.06262851 196.3545622 -32.7290349 194.68711423 -34.375 193 C-34.931875 192.4534375 -35.48875 191.906875 -36.0625 191.34375 C-38.80531896 188.64822102 -41.38367954 185.98931749 -43.8125 183 C-45.75586141 180.72484517 -47.4238777 179.04729666 -49.6796875 177.1640625 C-56.13390452 171.57799088 -62.05186698 165.42829588 -68.0625 159.375 C-69.28426946 158.14820268 -70.50627305 156.92163847 -71.72851562 155.6953125 C-73.97239624 153.44333014 -76.21491744 151.19001363 -78.45581055 148.93505859 C-80.34112434 147.03816113 -82.22996634 145.14503366 -84.12109375 143.25390625 C-85.6035272 141.7714728 -87.08027561 140.28332856 -88.55078125 138.7890625 C-92.13719387 135.15675429 -95.73937112 131.62520062 -99.625 128.3125 C-102.93975733 125.47407591 -105.57879108 122.3554507 -108.375 119 C-109.46860592 118.02633577 -110.58088761 117.07348751 -111.70483398 116.13500977 C-117.32685235 111.26895709 -122.51188305 105.97452351 -127.74824715 100.70191765 C-129.63445556 98.80279244 -131.52390414 96.906943 -133.41416931 95.01185608 C-137.42478256 90.98989097 -141.43143509 86.96399482 -145.4375 82.9375 C-150.08774631 78.26356137 -154.73965143 73.59129865 -159.39581108 68.9232502 C-161.24732452 67.06530686 -163.09577422 65.20435314 -164.94410706 63.34324646 C-166.09027373 62.19344394 -167.2365829 61.04378345 -168.38305664 59.89428711 C-169.13996796 59.12962631 -169.13996796 59.12962631 -169.91217041 58.34951782 C-173.09672058 55.16450581 -176.41063956 52.19925147 -179.86557674 49.30936527 C-181.71465251 47.70536482 -183.26858065 45.9593152 -184.8125 44.0625 C-188.31261799 39.93395173 -192.21899588 36.45434108 -196.375 33 C-193.39091533 30.5340494 -190.67655418 29.22895985 -187.01171875 28.01171875 C-185.91666016 27.64216064 -184.82160156 27.27260254 -183.69335938 26.8918457 C-182.49517578 26.49441162 -181.29699219 26.09697754 -180.0625 25.6875 C-177.43976271 24.80430471 -174.81931972 23.91441976 -172.19921875 23.0234375 C-171.50182587 22.78677872 -170.80443298 22.55011993 -170.08590698 22.30628967 C-161.14073597 19.25833756 -152.26187877 16.02545258 -143.375 12.8125 C-132.351554 8.83182949 -121.32395696 4.9047679 -110.18237305 1.2644043 C-104.80440259 -0.49948033 -99.49043799 -2.39755763 -94.1875 -4.375 C-92.63683286 -4.94692408 -91.08604836 -5.51853002 -89.53515625 -6.08984375 C-86.77081422 -7.10863093 -84.01150326 -8.13805475 -81.25732422 -9.18408203 C-50.40422146 -20.85541149 -28.29540462 -16.06168714 0 0 Z " fill="#FED16D" transform="translate(816.375,238)"/>
<path d="M0 0 C6.13792006 5.07536553 11.73928918 10.60995616 17.3515625 16.25390625 C18.33827007 17.24248416 19.32520255 18.23083763 20.31234741 19.21897888 C22.89362713 21.80404858 25.47189189 24.39210444 28.04949951 26.98083496 C30.66660042 29.60817595 33.28653742 32.23268541 35.90625 34.85742188 C40.51891078 39.47961019 45.12909762 44.10425107 49.73745728 48.73072815 C50.48409637 49.47958786 51.23073547 50.22844757 52 51 C52.86160736 51.87482529 53.72321472 52.74965057 54.6109314 53.65098572 C56.98266302 56.07351501 56.98266302 56.07351501 59.8125 58.1875 C60.534375 58.785625 61.25625 59.38375 62 60 C62 60.66 62 61.32 62 62 C62.58983736 62.26465907 63.17967472 62.52931814 63.78738594 62.80199718 C66.07857773 64.04254531 67.5699937 65.3260024 69.40182495 67.16804504 C70.05495667 67.81987259 70.70808838 68.47170013 71.38101196 69.14328003 C72.08656219 69.85759186 72.79211243 70.57190369 73.51904297 71.30786133 C74.27076782 72.06090042 75.02249268 72.81393951 75.79699707 73.58979797 C78.28335167 76.08264833 80.76265767 78.58239411 83.2421875 81.08203125 C84.9703666 82.81648168 86.69906248 84.55041734 88.42825317 86.28385925 C92.98400892 90.85292829 97.53417236 95.42752293 102.08276367 100.00372314 C109.35506409 107.31910289 116.63400974 114.62785461 123.9162941 121.9332943 C126.45676994 124.48397147 128.99379037 127.0380486 131.53048706 129.59248352 C133.09426318 131.16309105 134.65815093 132.73358745 136.22216797 134.30395508 C136.92366974 135.01219421 137.62517151 135.72043335 138.34793091 136.45013428 C142.08293204 140.19372864 145.9004392 143.66098243 150 147 C151.6171875 148.7734375 151.6171875 148.7734375 152.875 150.375 C154.99660791 152.94967549 157.21736987 155.14179387 159.7598877 157.29922485 C163.65579873 160.66581692 167.33335024 164.19145553 170.96679688 167.83740234 C171.93415268 168.80212967 171.93415268 168.80212967 172.92105103 169.78634644 C175.02278304 171.88372535 177.12089357 173.98468268 179.21875 176.0859375 C180.68690643 177.55341958 182.15521121 179.02075325 183.62365723 180.48794556 C186.68465071 183.54747145 189.74384454 186.60878232 192.80175781 189.67138672 C196.73055059 193.60591168 200.66386338 197.53588275 204.59850311 201.46455956 C207.62332374 204.48577924 210.64577425 207.50936089 213.66749573 210.53367996 C215.11811327 211.98496625 216.56947858 213.43550549 218.02159119 214.88529587 C220.03960214 216.90078418 222.05440879 218.9194204 224.06835938 220.93896484 C224.67293976 221.541521 225.27752014 222.14407715 225.90042114 222.76489258 C230 226.88573048 230 226.88573048 230 228 C199.16671286 228.15873223 168.35705613 227.72410367 137.52996826 227.13116455 C131.59750122 227.01777449 125.66496031 226.90840831 119.73242188 226.79882812 C112.64135761 226.66771102 105.55030885 226.53593248 98.45932007 226.40078735 C86.23106276 226.16817785 74.00273607 225.94721624 61.77392578 225.74560547 C58.01597941 225.6825472 54.25803622 225.6193016 50.50009346 225.55602837 C48.13620355 225.5169034 45.77229564 225.47884653 43.40836906 225.44200325 C30.91545357 225.24717235 18.44480693 224.93115844 5.96371365 224.34706593 C-1.85756247 223.98657958 -9.66216233 223.83634014 -17.4921875 223.7890625 C-18.82781716 223.7760052 -20.1634395 223.76218004 -21.49905396 223.74765015 C-27.03104983 223.68764284 -32.56298439 223.63170541 -38.09521484 223.59863281 C-40.86392036 223.58167344 -43.63235089 223.55696368 -46.40090942 223.52377319 C-48.97296146 223.493158 -51.54517577 223.47346624 -54.11740112 223.46670532 C-62.76135766 223.34393139 -70.91198382 222.75053057 -77.375 216.4375 C-79.56333515 214.34372254 -81.45681274 212.69545817 -84 211 C-84.44151306 209.02229309 -84.44151306 209.02229309 -84.53100586 206.56958008 C-84.56951157 205.65134964 -84.60801727 204.7331192 -84.64768982 203.7870636 C-84.66985062 202.79127792 -84.69201141 201.79549225 -84.71484375 200.76953125 C-84.73905899 199.74574875 -84.76327423 198.72196625 -84.78822327 197.66716003 C-84.82976771 195.49595408 -84.86192469 193.32455159 -84.88549805 191.15307617 C-84.93707546 187.83977207 -85.06859717 184.53552067 -85.20117188 181.22460938 C-85.54261186 165.75135103 -85.54261186 165.75135103 -81.43798828 161.09130859 C-78.33575297 159.3087483 -75.36509657 158.18499834 -72 157 C-65.2107232 152.10698303 -59.50246992 143.99922388 -57.44921875 135.80078125 C-55.45347149 123.35773094 -56.61999585 112.77360267 -63.87890625 102.28515625 C-67.94142787 97.30987655 -72.11236032 94.16145971 -77.8125 91.20703125 C-78.97394531 90.59964111 -80.13539063 89.99225098 -81.33203125 89.36645508 C-82.65267578 88.69005981 -82.65267578 88.69005981 -84 88 C-84.20334246 81.00791283 -84.34314504 74.01659125 -84.43945312 67.0222168 C-84.47961093 64.64464833 -84.53415065 62.26727652 -84.60351562 59.89038086 C-84.70090282 56.46679146 -84.7460045 53.04581853 -84.78125 49.62109375 C-84.82254028 48.56353378 -84.86383057 47.50597382 -84.90637207 46.41636658 C-84.91072431 39.20996776 -84.91072431 39.20996776 -82.33056641 35.7820282 C-78.14546644 31.9616737 -74.21463614 30.06924288 -68.74609375 28.69482422 C-65.72279421 27.92986063 -62.8217694 26.96175703 -59.875 25.94140625 C-58.7720459 25.56097168 -57.6690918 25.18053711 -56.53271484 24.78857422 C-55.36691895 24.38396973 -54.20112305 23.97936523 -53 23.5625 C-51.76846191 23.13727051 -50.53692383 22.71204102 -49.26806641 22.27392578 C-42.04866351 19.77704075 -34.84428154 17.23973724 -27.6484375 14.67578125 C-26.87340881 14.40014847 -26.09838013 14.12451569 -25.29986572 13.8405304 C-21.4920207 12.48627933 -17.68593681 11.12746343 -13.8828125 9.76000977 C-12.49225854 9.26428637 -11.10163692 8.76875268 -9.7109375 8.2734375 C-8.48681152 7.83435059 -7.26268555 7.39526367 -6.00146484 6.94287109 C-3 6 -3 6 0 6 C0 4.02 0 2.04 0 0 Z " fill="#FDD975" transform="translate(560,285)"/>
<path d="M0 0 C24.94727873 -0.11674306 49.8945166 -0.20494401 74.84201336 -0.25906086 C86.42528597 -0.28485488 98.00838898 -0.32002846 109.59155273 -0.37719727 C119.686113 -0.42699536 129.78055045 -0.45928229 139.87523013 -0.47044247 C145.22155223 -0.47696728 150.56752293 -0.49232756 155.91373253 -0.52865028 C160.94441424 -0.56255281 165.97459934 -0.57306451 171.00538445 -0.56553841 C172.85291491 -0.56691552 174.70046174 -0.57688216 176.54789352 -0.59602737 C179.06909612 -0.62087639 181.58841958 -0.61493601 184.10966492 -0.60127258 C184.84216278 -0.61583679 185.57466065 -0.630401 186.32935542 -0.64540654 C190.30036734 -0.58716509 191.84991474 -0.12675463 194.93064594 2.47507954 C195.61353278 3.30830329 196.29641962 4.14152704 197 5 C197.33 5.33 197.66 5.66 198 6 C198.11535659 7.92746574 198.15971021 9.85920185 198.17700195 11.79003906 C198.18965088 13.042323 198.2022998 14.29460693 198.21533203 15.58483887 C198.22348006 16.97843142 198.23111391 18.37202706 198.23828125 19.765625 C198.24312531 20.47380875 198.24796936 21.18199249 198.25296021 21.91163635 C198.28990203 27.3577495 198.305345 32.80377323 198.3125 38.25 C198.31379787 39.05168106 198.31509575 39.85336212 198.31643295 40.67933655 C198.36163386 77.41287853 196.54653832 113.83695631 191.4375 150.25 C191.28796371 151.31679993 191.28796371 151.31679993 191.13540649 152.40515137 C188.54516994 170.43676209 188.54516994 170.43676209 184.125 176.625 C182 178 182 178 179.71127319 177.90263367 C176.14363829 176.71490113 174.04977245 174.57199128 171.49462891 171.93286133 C170.70573021 171.14242935 170.70573021 171.14242935 169.90089417 170.33602905 C168.16660054 168.59386025 166.44680663 166.83806468 164.7265625 165.08203125 C163.51831645 163.8637758 162.30910316 162.64647895 161.09896851 161.43009949 C157.91349121 158.22368799 154.73975644 155.00590785 151.56878662 151.78515625 C146.50410595 146.64525362 141.42087233 141.5236846 136.33945847 136.40033531 C134.57327298 134.61658201 132.81146406 132.82860207 131.05044556 131.03974915 C125.87629565 125.79652555 120.69223936 120.68838107 115 116 C113.31237149 114.3545622 111.6459651 112.68711423 110 111 C109.443125 110.4534375 108.88625 109.906875 108.3125 109.34375 C105.56968104 106.64822102 102.99132046 103.98931749 100.5625 101 C98.61913859 98.72484517 96.9511223 97.04729666 94.6953125 95.1640625 C88.24109548 89.57799088 82.32313302 83.42829588 76.3125 77.375 C75.09073054 76.14820268 73.86872695 74.92163847 72.64648438 73.6953125 C70.40260376 71.44333014 68.16008256 69.19001363 65.91918945 66.93505859 C64.03387566 65.03816113 62.14503366 63.14503366 60.25390625 61.25390625 C58.7714728 59.7714728 57.29472439 58.28332856 55.82421875 56.7890625 C52.23780613 53.15675429 48.63562888 49.62520062 44.75 46.3125 C41.43524267 43.47407591 38.79620892 40.3554507 36 37 C34.93296516 36.05037409 33.8471602 35.1216854 32.75 34.20703125 C26.69746301 28.97095341 21.08931352 23.27533913 15.43359375 17.61889648 C13.48195168 15.66947219 11.5224033 13.72822376 9.5625 11.78710938 C8.32242929 10.54996751 7.08282823 9.31235465 5.84375 8.07421875 C5.25638062 7.49403488 4.66901123 6.91385101 4.06384277 6.31608582 C0 2.22886255 0 2.22886255 0 0 Z " fill="#FDD975" transform="translate(672,320)"/>
<path d="M0 0 C20.04207112 9.75957804 38.16223264 22.74254686 54.2578125 38.10546875 C54.98871094 38.79511719 55.71960938 39.48476563 56.47265625 40.1953125 C72.54543014 55.75884999 87.73165171 76.8419436 88.66186523 99.93847656 C88.68770163 101.97837578 88.69684855 104.01853818 88.69140625 106.05859375 C88.69827957 107.17663391 88.70515289 108.29467407 88.7122345 109.44659424 C88.72593609 113.08317006 88.71329635 116.71891943 88.6953125 120.35546875 C88.69293579 121.6086792 88.69055908 122.86188965 88.68811035 124.15307617 C88.61396339 149.2912863 86.93653097 174.12290068 84.2578125 199.10546875 C84.09046524 200.70359316 83.92330283 202.30173693 83.75634766 203.89990234 C82.19689263 218.65755623 80.18631033 233.34127079 77.7578125 247.98046875 C77.56840088 249.14537842 77.37898926 250.31028809 77.18383789 251.51049805 C73.77258433 271.06120033 73.77258433 271.06120033 66.0390625 276.984375 C64.18562663 278.15090152 62.21658939 279.1260803 60.2578125 280.10546875 C55.9678125 275.81546875 51.6778125 271.52546875 47.2578125 267.10546875 C48.1859375 266.21859375 49.1140625 265.33171875 50.0703125 264.41796875 C72.55737589 237.94078875 64.57028562 162.73445033 64.74230576 129.67068481 C64.75777216 127.23681686 64.78174703 124.80316083 64.80776978 122.36938477 C64.8469662 118.50964571 64.85921551 114.65070342 64.85083961 110.79078293 C64.85131731 109.35185397 64.86010713 107.9129011 64.87766075 106.47407913 C64.89983495 104.48560939 64.88723348 102.49684356 64.87304688 100.50830078 C64.87510132 99.38779327 64.87715576 98.26728577 64.87927246 97.11282349 C64.03215992 93.01349597 62.51762041 91.69531402 59.2578125 89.10546875 C56.42144494 88.63741891 54.20114641 88.47663814 51.37661743 88.55130005 C50.19542928 88.5523003 50.19542928 88.5523003 48.99037874 88.55332077 C46.35435194 88.56147014 43.72013374 88.6053425 41.08447266 88.64892578 C39.19365311 88.66179739 37.30281663 88.67236015 35.41197205 88.68078613 C31.34115983 88.70336743 27.27087895 88.74128695 23.20030594 88.7907753 C16.76270668 88.8679249 10.32526621 88.90480742 3.88729858 88.93502808 C-12.10394814 89.01619134 -28.09475528 89.14613868 -44.08551025 89.29467773 C-56.51148408 89.40982596 -68.93713504 89.50969602 -81.36355937 89.56073654 C-87.762374 89.58875866 -94.15978997 89.64942823 -100.55808616 89.73466134 C-104.5408751 89.78053946 -108.52339465 89.79718633 -112.50642204 89.80575562 C-114.3515847 89.81565732 -116.19672859 89.83762025 -118.04158592 89.87261581 C-132.0309416 90.12857795 -132.0309416 90.12857795 -136.42988968 87.49856186 C-138.16782655 85.78407509 -139.51057139 84.20560859 -140.7421875 82.10546875 C-140.2471875 81.11546875 -140.2471875 81.11546875 -139.7421875 80.10546875 C-139.0559024 80.09608308 -138.36961729 80.08669741 -137.66253567 80.07702732 C-120.66073838 79.84442347 -103.65896108 79.61040908 -86.65720272 79.37497807 C-78.4339935 79.2611388 -70.21077897 79.14771853 -61.98754883 79.03540039 C-52.45652412 78.90515887 -42.92551622 78.77374394 -33.39453125 78.640625 C-32.61482326 78.62973485 -31.83511527 78.61884469 -31.03177977 78.60762453 C-1.26691974 78.19099818 28.49561084 77.68331046 58.2578125 77.10546875 C57.30466014 75.17483092 56.34872136 73.24556857 55.39160156 71.31689453 C54.85956116 70.24239044 54.32752075 69.16788635 53.77935791 68.06082153 C43.72992598 48.54144575 24.29044871 32.87188946 6.2578125 21.10546875 C5.61779297 20.68475098 4.97777344 20.2640332 4.31835938 19.83056641 C-10.57806776 10.16198634 -26.7945287 3.17146843 -43.44140625 -2.88867188 C-44.84712891 -3.41364258 -44.84712891 -3.41364258 -46.28125 -3.94921875 C-47.11865723 -4.25327637 -47.95606445 -4.55733398 -48.81884766 -4.87060547 C-50.7421875 -5.89453125 -50.7421875 -5.89453125 -51.7421875 -8.89453125 C-35.61001951 -16.43094744 -14.75406995 -6.95528196 0 0 Z " fill="#F39720" transform="translate(804.7421875,231.89453125)"/>
<path d="M0 0 C21.48265981 -0.10858873 42.95232865 0.18982097 64.43140125 0.53992414 C68.3016534 0.60275732 72.17192667 0.66423594 76.04219985 0.72575819 C85.27002779 0.87248287 94.49781762 1.02145012 103.72558594 1.171875 C111.96773529 1.30619998 120.20991934 1.43804492 128.45214844 1.56738281 C131.47858367 1.61498576 134.50501853 1.66261306 137.53145313 1.7102561 C139.54891774 1.74199143 141.56638333 1.77366379 143.58384991 1.80527353 C154.66219827 1.97923001 165.74024489 2.16283613 176.81799316 2.37176514 C179.82980213 2.42816277 182.84161327 2.48444102 185.85342693 2.54058695 C187.85610639 2.57793385 189.85878243 2.61546459 191.86145496 2.6531806 C204.13986397 2.88194768 216.41613697 3.04177404 228.69654393 3.10655677 C236.84794807 3.14969098 244.99857477 3.2258692 253.14947963 3.32577813 C258.86666434 3.39319181 264.58153946 3.41512368 270.29907417 3.40195179 C273.81104014 3.40541059 277.32129634 3.4543565 280.83267689 3.51604033 C282.44459933 3.53525983 284.05687445 3.53598923 285.66878796 3.51603365 C293.21076458 3.43128699 299.29008305 3.6146188 305.06173158 8.98748529 C311 15.16072375 311 15.16072375 311 17 C280.16671286 17.15873223 249.35705613 16.72410367 218.52996826 16.13116455 C212.59750122 16.01777449 206.66496031 15.90840831 200.73242188 15.79882812 C193.64135761 15.66771102 186.55030885 15.53593248 179.45932007 15.40078735 C167.23106276 15.16817785 155.00273607 14.94721624 142.77392578 14.74560547 C139.01597941 14.6825472 135.25803622 14.6193016 131.50009346 14.55602837 C129.13620355 14.5169034 126.77229564 14.47884653 124.40836906 14.44200325 C111.91545357 14.24717235 99.44480693 13.93115844 86.96371365 13.34706593 C79.14243753 12.98657958 71.33783767 12.83634014 63.5078125 12.7890625 C62.17218284 12.7760052 60.8365605 12.76218004 59.50094604 12.74765015 C53.96895017 12.68764284 48.43701561 12.63170541 42.90478516 12.59863281 C40.13607964 12.58167344 37.36764911 12.55696368 34.59909058 12.52377319 C32.02703854 12.493158 29.45482423 12.47346624 26.88259888 12.46670532 C18.1430764 12.34257402 10.0789892 11.64964041 3.4375 5.4375 C2.77621094 4.83808594 2.11492187 4.23867188 1.43359375 3.62109375 C0 2 0 2 0 0 Z " fill="#F4961F" transform="translate(479,496)"/>
<path d="M0 0 C0.33 0.66 0.66 1.32 1 2 C2.33277019 2.66779176 3.66618223 3.33430309 5 4 C6.69586182 5.45535278 6.69586182 5.45535278 8.39160156 7.16455078 C9.0319635 7.80506378 9.67232544 8.44557678 10.33209229 9.10549927 C11.01140808 9.79513763 11.69072388 10.484776 12.390625 11.1953125 C13.09523865 11.90275604 13.79985229 12.61019958 14.52581787 13.33908081 C16.7719539 15.59639862 19.01103009 17.86057633 21.25 20.125 C22.77297717 21.65800953 24.29640939 23.19056715 25.8203125 24.72265625 C29.55216815 28.47654573 33.27825351 32.23608914 37 36 C36.07857027 37.93104538 35.14689107 39.8572022 34.2109375 41.78125 C33.69321777 42.85439453 33.17549805 43.92753906 32.64208984 45.03320312 C28.62615941 52.28886571 21.37202005 56.30357262 13.625 58.75 C2.50403197 59.80913981 -5.23617096 57.79703665 -14.140625 50.8515625 C-20.73110448 44.28877411 -23.34824616 37.01034269 -23.3828125 27.95288086 C-23.18785857 19.42466174 -19.92207049 13.82624932 -14.3125 7.625 C-10.09766106 3.64387105 -5.48284881 1.70777258 0 0 Z " fill="#F5971E" transform="translate(621,345)"/>
<path d="M0 0 C4.97573418 4.17282346 9.66304787 8.51527427 14.24609375 13.11328125 C15.23005882 14.09581123 15.23005882 14.09581123 16.23390198 15.09819031 C17.60564902 16.46926195 18.9761546 17.84157673 20.34545898 19.21508789 C22.45247257 21.32751101 24.56484026 23.43447608 26.67773438 25.54101562 C28.01334205 26.87728318 29.34863999 28.21386041 30.68359375 29.55078125 C31.31784775 30.18301102 31.95210175 30.81524078 32.60557556 31.46662903 C37 35.88501756 37 35.88501756 37 37 C27.09523699 37.13337149 17.19044016 37.26387607 7.28559685 37.39115143 C2.68159058 37.45039295 -1.92240108 37.51046317 -6.52636719 37.57275391 C-31.68577946 37.91237483 -56.83827863 38.07110226 -82 38 C-80.09633754 33.91915167 -78.17949148 31.81505155 -73.87890625 30.20678711 C-73.11449219 30.0031958 -72.35007812 29.79960449 -71.5625 29.58984375 C-65.28813547 27.82088514 -59.15737808 25.69949742 -53 23.5625 C-51.76846191 23.13727051 -50.53692383 22.71204102 -49.26806641 22.27392578 C-42.04866351 19.77704075 -34.84428154 17.23973724 -27.6484375 14.67578125 C-26.87340881 14.40014847 -26.09838013 14.12451569 -25.29986572 13.8405304 C-21.4920207 12.48627933 -17.68593681 11.12746343 -13.8828125 9.76000977 C-12.49225854 9.26428637 -11.10163692 8.76875268 -9.7109375 8.2734375 C-8.48681152 7.83435059 -7.26268555 7.39526367 -6.00146484 6.94287109 C-3 6 -3 6 0 6 C0 4.02 0 2.04 0 0 Z " fill="#FDD16F" transform="translate(560,285)"/>
<path d="M0 0 C5.74957975 3.33475626 10.70781767 7.03570361 12.68359375 13.6953125 C14.05244082 20.26093298 13.44235458 25.92687091 10.125 31.8125 C6.56569665 36.65710734 3.03146 41.06243778 -2.875 42.8125 C-9.68036229 43.42167565 -16.06974088 43.87618139 -21.875 39.8125 C-22.74125 39.235 -23.6075 38.6575 -24.5 38.0625 C-28.25890921 34.50142812 -31.62187006 29.50978622 -32.11328125 24.2734375 C-32.30097509 16.46932519 -31.70045321 10.87364464 -26.2265625 5.0625 C-19.00291827 -1.49871398 -9.35116597 -3.67367234 0 0 Z " fill="#F5971D" transform="translate(563.875,433.1875)"/>
<path d="M0 0 C2.68397414 2.10689248 4.36980201 4.00597159 5.98828125 7.01171875 C5.45885289 11.35303127 2.99518404 13.86594632 -0.32421875 16.57421875 C-11.40471501 22.44970483 -25.82742274 23.69266312 -37.94921875 20.38671875 C-43.04136214 18.54450988 -47.52271579 15.97622269 -50.82421875 11.57421875 C-51.5490556 8.67487136 -51.46207823 7.38540099 -50.32421875 4.57421875 C-39.16528721 -9.3564474 -14.05604786 -8.62261759 0 0 Z " fill="#F4971D" transform="translate(725.32421875,270.42578125)"/>
<path d="M0 0 C-9.90476301 0.13337149 -19.80955984 0.26387607 -29.71440315 0.39115143 C-34.31840942 0.45039295 -38.92240108 0.51046317 -43.52636719 0.57275391 C-68.68577946 0.91237483 -93.83827863 1.07110226 -119 1 C-117.44038719 -2.3322124 -116.20435683 -4.0773859 -113 -6 C-108.23457132 -7.30221881 -103.36191116 -7.25811058 -98.45556641 -7.39233398 C-97.02293205 -7.43627037 -97.02293205 -7.43627037 -95.56135559 -7.48109436 C-85.61197605 -7.77879681 -75.66091406 -8.02131979 -65.70996094 -8.25952148 C-60.98961847 -8.37426249 -56.27022983 -8.50615679 -51.55078125 -8.65307617 C-45.84614273 -8.83054162 -40.14146823 -8.97790567 -34.43546677 -9.10383797 C-32.26391946 -9.15677959 -30.09260217 -9.220261 -27.92168045 -9.29455376 C-24.8820974 -9.39637203 -21.84397984 -9.45942371 -18.80322266 -9.51342773 C-17.46417122 -9.57148087 -17.46417122 -9.57148087 -16.09806824 -9.63070679 C-8.25195292 -9.69772071 -4.26400096 -6.39600144 0 0 Z " fill="#F19922" transform="translate(597,322)"/>
<path d="M0 0 C9.18864895 0.15314415 16.27032744 3.83030689 23.14453125 9.890625 C31.67128679 19.03041525 35.36745764 30.11423592 35.25 42.4375 C35.26160156 43.64889648 35.26160156 43.64889648 35.2734375 44.88476562 C35.23286163 57.47342895 30.99066435 66.5739285 22.41796875 75.6640625 C15.55619444 82.2930464 9.48725378 84.97147529 0 86 C1.30062317 82.09813049 2.64630456 81.87880104 6.25 80.0625 C16.05922232 74.87310497 21.58027074 68.23516251 26 58 C28.5076214 47.98729894 28.19407416 37.05388623 23.66015625 27.74609375 C17.66591038 17.83090587 10.25148403 12.78508219 0 8 C0 5.36 0 2.72 0 0 Z " fill="#F29C28" transform="translate(476,365)"/>
<path d="M0 0 C7.75185959 4.10325706 11.90529941 10.13386699 14.6640625 18.41015625 C14.73457364 21.14880912 14.75764015 23.86043213 14.7265625 26.59765625 C14.72205078 27.34724609 14.71753906 28.09683594 14.71289062 28.86914062 C14.70112604 30.71618008 14.68319115 32.56317838 14.6640625 34.41015625 C9.16586523 34.41015625 5.42873934 29.10196838 1.6640625 25.41015625 C0.76555601 24.38869625 -0.11534553 23.35083381 -0.9609375 22.28515625 C-2.87013724 19.97401972 -4.5784127 18.26327377 -6.8359375 16.34765625 C-13.02788433 11.08450145 -18.63341241 5.1909172 -24.3359375 -0.58984375 C-20.51280712 -8.2361045 -5.54758318 -2.57310383 0 0 Z " fill="#F4961F" transform="translate(773.3359375,398.58984375)"/>
<path d="M0 0 C3.64331077 1.61924923 6.20425519 3.40851039 8 7 C8.58377585 11.26236343 8.44772276 14.85581962 6.875 18.875 C3.7685724 22.39561795 0.6093583 23.76530191 -4 24.4375 C-8.8547582 23.72951443 -11.82247704 21.45227831 -14.875 17.6875 C-16.3877643 14.07367417 -16.60395126 11.89213031 -16 8 C-11.73918596 1.43287377 -7.94455469 -0.85556743 0 0 Z " fill="#F3971E" transform="translate(827,347)"/>
<path d="M0 0 C3.16118708 1.63913404 5.26864575 3.00269875 7.375 5.875 C8.69601084 10.36643685 8.48383625 13.10144696 6.25 17.25 C2.87808772 21.37122612 1.36289497 21.84856723 -3.9375 22.4375 C-7.42902053 22.35947719 -7.9606187 22.03167626 -10.875 19.6875 C-14.9245283 14.56603774 -14.9245283 14.56603774 -15.375 11.1875 C-14.90316168 7.1768743 -13.49439589 5.13581198 -11 2 C-7.29137017 -0.47241989 -4.30094385 -0.66668695 0 0 Z " fill="#F2981F" transform="translate(680,456)"/>
<path d="M0 0 C30.03552169 -0.17162853 60.05055792 0.30183543 90.08007812 0.86883545 C94.95822845 0.96010606 99.83643818 1.04792742 104.71465302 1.13567162 C133.8122838 1.6597161 162.90693699 2.26417798 192 3 C192.33 3.66 192.66 4.32 193 5 C141.68179845 5.19661292 141.68179845 5.19661292 120.00918579 4.49389648 C108.32874833 4.11776874 96.65022096 3.91534794 84.96484375 3.78125 C83.4084872 3.76275362 81.85213141 3.74419335 80.29577637 3.72557068 C70.90155977 3.61388757 70.90155977 3.61388757 61.50714111 3.52127075 C40.93821334 3.33885584 20.51302293 2.5650937 0 1 C0 0.67 0 0.34 0 0 Z " fill="#FEEECC" transform="translate(599,510)"/>
<path d="M0 0 C0.33 0 0.66 0 1 0 C2.33583899 4.84241633 3.25328119 8.93437617 3 14 C3.66 14 4.32 14 5 14 C5.43093545 76.82569751 5.43093545 76.82569751 3 101 C2.87689453 102.25586914 2.75378906 103.51173828 2.62695312 104.80566406 C1.82500104 112.87904732 0.97190593 120.9452029 0 129 C-0.0913623 129.75812988 -0.18272461 130.51625977 -0.27685547 131.29736328 C-0.87203899 135.87203899 -0.87203899 135.87203899 -2 137 C-2.15620555 138.41327947 -2.25056173 139.8335459 -2.31640625 141.25390625 C-2.35830078 142.10791016 -2.40019531 142.96191406 -2.44335938 143.84179688 C-2.50233398 145.18854492 -2.50233398 145.18854492 -2.5625 146.5625 C-2.60568359 147.46419922 -2.64886719 148.36589844 -2.69335938 149.29492188 C-2.79978142 151.52978485 -2.90179988 153.76476308 -3 156 C-3.99 156.33 -4.98 156.66 -6 157 C-5.15743599 146.92888201 -4.29402939 136.8744943 -2.93798828 126.85766602 C0.86005842 98.58469031 2.29224609 70.45385844 2.375 41.9375 C2.38276459 40.7008963 2.39052917 39.4642926 2.39852905 38.19021606 C2.58688087 20.5294466 2.58688087 20.5294466 -0.45458984 3.21313477 C-0.6345752 2.48280029 -0.81456055 1.75246582 -1 1 C-0.67 0.67 -0.34 0.34 0 0 Z " fill="#FEF4D5" transform="translate(890,311)"/>
<path d="M0 0 C1.42320053 0.20996864 1.42320053 0.20996864 2.87515259 0.42417908 C13.20786301 1.87480368 23.34988633 2.32258606 33.7734375 2.37890625 C35.4338166 2.39515562 37.09418675 2.41234276 38.75454712 2.43040466 C43.08422615 2.47557664 47.41391906 2.51061865 51.74371338 2.54260254 C58.66164445 2.59491507 65.57943915 2.66087523 72.49721146 2.73081779 C74.87519425 2.75310272 77.25316175 2.76972131 79.63119507 2.78553772 C87.86915442 2.85323262 96.05974998 3.13436947 104.2826643 3.63533878 C111.63234113 4.06908282 118.97334435 4.19396433 126.33435631 4.26036072 C128.72172532 4.28202126 131.10899031 4.30896302 133.49629211 4.33703613 C139.41483005 4.40564482 145.33344623 4.46591506 151.2520752 4.52606201 C156.28946035 4.57755208 161.32678564 4.63250659 166.36408424 4.69187927 C168.68514182 4.71789179 171.00620765 4.73902519 173.32731628 4.7598877 C182.58505306 4.85893746 191.76849137 5.27926804 201 6 C201 6.33 201 6.66 201 7 C174.07875196 7.11263395 147.16776688 7.04307647 120.25 6.5625 C119.09918945 6.54285187 117.94837891 6.52320374 116.76269531 6.50296021 C105.4502774 6.30611426 94.15265811 6.03822187 82.8515625 5.48828125 C73.73744368 5.04957908 64.63152975 4.87860789 55.5078125 4.7890625 C54.15767319 4.77468267 52.80753483 4.76021212 51.45739746 4.74565125 C45.93990924 4.68761152 40.42248801 4.63161856 34.90478516 4.59863281 C32.13607964 4.58167344 29.36764911 4.55696368 26.59909058 4.52377319 C24.02703854 4.493158 21.45482423 4.47346624 18.88259888 4.46670532 C11.94688792 4.36819436 6.44677757 3.59821272 0 1 C0 0.67 0 0.34 0 0 Z " fill="#E49F4A" transform="translate(487,504)"/>
<path d="M0 0 C18.92570179 -0.06549442 37.8389679 0.11541951 56.76171875 0.4375 C59.5032328 0.48278064 62.24475765 0.52739125 64.98628235 0.57202148 C71.38153694 0.67650476 77.77675247 0.78319962 84.17195588 0.89076519 C91.47350221 1.01346177 98.77509037 1.13357695 106.07668245 1.25351524 C121.0511686 1.49954673 136.02560143 1.74869014 151 2 C151 2.33 151 2.66 151 3 C133.09339058 3.02335981 115.18678512 3.04099434 97.28016376 3.05181217 C88.9658234 3.05696857 80.6514925 3.06399879 72.3371582 3.07543945 C65.0904355 3.08540631 57.84371965 3.09185821 50.59699029 3.09408849 C46.75988077 3.09539219 42.92279087 3.09845654 39.08568764 3.10573006 C35.47343033 3.11252182 31.8612007 3.11461052 28.24893761 3.11310768 C26.29254173 3.11351358 24.33614885 3.11889233 22.37976074 3.12442017 C21.21173416 3.1230455 20.04370758 3.12167084 18.84028625 3.12025452 C17.82723577 3.12117631 16.81418528 3.1220981 15.77043629 3.12304783 C13.07853083 3.00348792 10.62172448 2.60476273 8 2 C8 2.99 8 3.98 8 5 C6.25 5.75 6.25 5.75 4 6 C1.75 4.1875 1.75 4.1875 0 2 C0 1.34 0 0.68 0 0 Z " fill="#EDA231" transform="translate(479,496)"/>
<path d="M0 0 C2.97274398 2.55691372 4.35688392 5.40736779 6 8.9375 C6.495 9.97777344 6.99 11.01804687 7.5 12.08984375 C11.35361951 21.45396328 12.44690714 30.71504379 12.36328125 40.76171875 C12.36377975 41.9506221 12.36427826 43.13952545 12.36479187 44.36445618 C12.36246473 46.87132443 12.35281729 49.37819563 12.33618164 51.88500977 C12.31284223 55.63254886 12.31560126 59.37936089 12.32226562 63.12695312 C12.30245537 78.83648894 11.52638337 94.36522915 10 110 C9.67 110 9.34 110 9 110 C9.01110306 108.9514534 9.02220612 107.9029068 9.03364563 106.82258606 C9.13543863 96.8933352 9.21016422 86.96419157 9.25906086 77.03453541 C9.28504521 71.93075966 9.32023706 66.82740845 9.37719727 61.72387695 C9.43191803 56.7895617 9.46150426 51.85565225 9.47438622 46.92105675 C9.48355472 45.04775298 9.5014569 43.17446893 9.52865028 41.3013401 C9.68583799 30.01497783 9.06589743 21.28545437 4 11 C3.22654801 9.27200307 2.4552309 7.54304634 1.6875 5.8125 C1.36136719 5.11769531 1.03523437 4.42289062 0.69921875 3.70703125 C0 2 0 2 0 0 Z " fill="#E8A650" transform="translate(881,298)"/>
<path d="M0 0 C0 0.33 0 0.66 0 1 C-37.25716294 7.23068913 -73.47000201 8.7828126 -111 4 C-111 3.67 -111 3.34 -111 3 C-103.29081027 2.89004325 -95.63330137 2.99584833 -87.9375 3.4375 C-87.22408447 3.47673584 -86.51066895 3.51597168 -85.77563477 3.55639648 C-83.00740277 3.72725881 -80.32160632 3.9312835 -77.60620117 4.51147461 C-74.87394864 5.02362799 -72.36397223 5.12940028 -69.5859375 5.1328125 C-68.57789063 5.13410156 -67.56984375 5.13539063 -66.53125 5.13671875 C-65.4896875 5.13285156 -64.448125 5.12898437 -63.375 5.125 C-62.32570313 5.12886719 -61.27640625 5.13273438 -60.1953125 5.13671875 C-59.18984375 5.13542969 -58.184375 5.13414062 -57.1484375 5.1328125 C-56.23239746 5.13168457 -55.31635742 5.13055664 -54.37255859 5.12939453 C-51.84942774 5.09652926 -51.84942774 5.09652926 -49 4 C-47.47654109 3.88677468 -45.94917708 3.82215911 -44.421875 3.7890625 C-43.51550293 3.76255615 -42.60913086 3.7360498 -41.67529297 3.70874023 C-40.70994629 3.68110596 -39.74459961 3.65347168 -38.75 3.625 C-30.65520038 3.34102974 -23.2599685 2.442287 -15.36328125 0.6328125 C-10.23083107 -0.33287499 -5.19924714 -0.26141466 0 0 Z " fill="#C82F39" transform="translate(748,689)"/>
<path d="M0 0 C13.25205661 1.8185304 13.25205661 1.8185304 19 3 C44.32830744 7.63861444 70.42832781 6.44794099 96 5 C89.39750511 9.12655931 80.2254673 8.18382348 72.72265625 8.23828125 C71.63907333 8.246353 70.55549042 8.25442474 69.43907166 8.26274109 C67.14372325 8.27653126 64.84835478 8.28727591 62.55297852 8.29516602 C60.25636579 8.30657117 57.95977708 8.32683548 55.66333008 8.35668945 C36.86777411 8.60025743 18.07536065 7.61177078 0 2 C0 1.34 0 0.68 0 0 Z " fill="#BD1821" transform="translate(622,635)"/>
<path d="M0 0 C0.66 0.33 1.32 0.66 2 1 C2.02512941 5.9763962 2.04305808 10.95275371 2.05493164 15.92919922 C2.0598929 17.61442713 2.06666403 19.29965091 2.07543945 20.98486328 C2.22102785 49.70859851 2.22102785 49.70859851 -0.4375 62.3125 C-0.68371094 63.52550781 -0.92992187 64.73851562 -1.18359375 65.98828125 C-2 69 -2 69 -4 72 C-3.68849701 68.99989351 -3.3758246 65.99991634 -3.0625 63 C-2.97548828 62.16082031 -2.88847656 61.32164062 -2.79882812 60.45703125 C-2.71181641 59.62558594 -2.62480469 58.79414063 -2.53515625 57.9375 C-2.456604 57.18339844 -2.37805176 56.42929687 -2.29711914 55.65234375 C-2.06152347 53.54921199 -1.7816851 51.45104332 -1.48632812 49.35546875 C-0.86043452 44.36957242 -0.77255506 39.39478757 -0.68359375 34.375 C-0.66281265 33.38749756 -0.64203156 32.39999512 -0.62062073 31.38256836 C-0.55569247 28.25511039 -0.4965063 25.12757473 -0.4375 22 C-0.39426072 19.86848183 -0.35064478 17.73697127 -0.30664062 15.60546875 C-0.20006997 10.40372588 -0.0982026 5.20190723 0 0 Z " fill="#BE2631" transform="translate(951,355)"/>
<path d="M0 0 C0 0.33 0 0.66 0 1 C-10.41303106 2.41193641 -20.47329223 3.30028643 -31 3 C-31 3.66 -31 4.32 -31 5 C-31.84304688 5.06058594 -32.68609375 5.12117188 -33.5546875 5.18359375 C-34.65039062 5.26738281 -35.74609375 5.35117187 -36.875 5.4375 C-38.51082031 5.55931641 -38.51082031 5.55931641 -40.1796875 5.68359375 C-42.94728971 5.83001703 -42.94728971 5.83001703 -45 7 C-52.68154241 8.39757146 -60.19588 9.26910759 -68 9 C-65.28199394 7.53129225 -62.85384087 6.62203205 -59.82421875 6.03515625 C-59.00816162 5.8762793 -58.19210449 5.71740234 -57.35131836 5.55371094 C-56.4722583 5.39161133 -55.59319824 5.22951172 -54.6875 5.0625 C-53.76396729 4.89137695 -52.84043457 4.72025391 -51.88891602 4.54394531 C-34.52293195 1.40852178 -17.66102434 -0.52228659 0 0 Z " fill="#C3262B" transform="translate(676,58)"/>
<path d="M0 0 C0.33 0 0.66 0 1 0 C1.01458252 0.84369141 1.02916504 1.68738281 1.04418945 2.55664062 C1.37257854 19.66536393 2.14617453 36.44418561 4.62695312 53.40234375 C5.20504486 57.42779927 5.69523262 61.46331621 6.1875 65.5 C6.34605469 66.7684375 6.50460937 68.036875 6.66796875 69.34375 C6.77753906 70.2203125 6.88710938 71.096875 7 72 C6.34 72 5.68 72 5 72 C4.79503906 70.80761719 4.59007812 69.61523438 4.37890625 68.38671875 C4.10689193 66.82029147 3.83474985 65.25388636 3.5625 63.6875 C3.42779297 62.90181641 3.29308594 62.11613281 3.15429688 61.30664062 C3.02216797 60.54931641 2.89003906 59.79199219 2.75390625 59.01171875 C2.63345947 58.31522217 2.5130127 57.61872559 2.38891602 56.90112305 C1.99664201 54.7904669 1.99664201 54.7904669 1 52 C-1.06396115 40.23744313 -1.11112328 28.88836144 -0.625 17 C-0.56654511 15.33858219 -0.50924788 13.67712322 -0.453125 12.015625 C-0.31535784 8.00981899 -0.16216981 4.00488922 0 0 Z " fill="#C12731" transform="translate(416,366)"/>
<path d="M0 0 C0.66 0.33 1.32 0.66 2 1 C1.40574219 1.72960937 0.81148438 2.45921875 0.19921875 3.2109375 C-10.77098054 16.92480739 -19.17903047 31.9316043 -27.11669922 47.56005859 C-27.59510254 48.49930176 -28.07350586 49.43854492 -28.56640625 50.40625 C-28.98865479 51.24478516 -29.41090332 52.08332031 -29.84594727 52.94726562 C-31 55 -31 55 -33 57 C-32.71517632 55.58194169 -32.42181856 54.16559621 -32.125 52.75 C-31.96257812 51.96109375 -31.80015625 51.1721875 -31.6328125 50.359375 C-31.00849925 48.03168856 -30.15161458 46.10968048 -29 44 C-28.34 44 -27.68 44 -27 44 C-26.855625 43.4225 -26.71125 42.845 -26.5625 42.25 C-26.04166667 40.16666667 -25.52083333 38.08333333 -25 36 C-24.34 36 -23.68 36 -23 36 C-22.855625 35.401875 -22.71125 34.80375 -22.5625 34.1875 C-22.1127561 32.43849596 -21.57107659 30.71322977 -21 29 C-20.34 29 -19.68 29 -19 29 C-19 28.01 -19 27.02 -19 26 C-18.34 26 -17.68 26 -17 26 C-16.71125 25.0925 -16.4225 24.185 -16.125 23.25 C-15.23468224 20.67797092 -14.28505587 18.38653234 -13 16 C-12.34 16 -11.68 16 -11 16 C-11 15.01 -11 14.02 -11 13 C-10.34 13 -9.68 13 -9 13 C-9 12.01 -9 11.02 -9 10 C-8.34 10 -7.68 10 -7 10 C-6.773125 9.46375 -6.54625 8.9275 -6.3125 8.375 C-4.56617944 5.21499137 -2.3597151 2.7323017 0 0 Z " fill="#BE232C" transform="translate(472,212)"/>
<path d="M0 0 C0.94145874 0.13957123 1.88291748 0.27914246 2.85290527 0.42294312 C13.39808415 1.90811199 23.7677692 2.33861756 34.40625 2.4140625 C36.10975012 2.4328321 37.81324152 2.4524095 39.51672363 2.4727478 C43.94206527 2.52346464 48.36743685 2.56340841 52.79290771 2.60089111 C57.33206212 2.64131602 61.87109853 2.69223004 66.41015625 2.7421875 C75.27335605 2.83822819 84.13661565 2.92285608 93 3 C93 3.33 93 3.66 93 4 C82.20323836 4.0696708 71.40653068 4.12289785 60.60958958 4.15543652 C55.59552095 4.17105756 50.58160673 4.19223054 45.56762695 4.22631836 C40.72413056 4.25903911 35.8807822 4.27687978 31.03718376 4.28463173 C29.19410817 4.29015247 27.35104019 4.30093294 25.50802803 4.31719017 C22.91606592 4.33913378 20.32470683 4.34195992 17.73266602 4.34057617 C16.97956146 4.351362 16.22645691 4.36214783 15.45053101 4.3732605 C9.86083341 4.34120665 5.19670862 3.01482386 0 1 C0 0.67 0 0.34 0 0 Z " fill="#E79632" transform="translate(487,504)"/>
<path d="M0 0 C0.33 0 0.66 0 1 0 C0.69288097 3.66926424 0.34871206 7.33446855 0 11 C-0.16628906 12.84078125 -0.16628906 12.84078125 -0.3359375 14.71875 C-1.29395094 24.61543498 -2.82099232 34.38840058 -4.5 44.1875 C-4.71366211 45.44095215 -4.92732422 46.6944043 -5.14746094 47.98583984 C-6.15920059 53.76398009 -7.21101173 59.40941165 -9 65 C-10.38315373 61.13301387 -9.73006194 57.81171075 -9.125 53.8125 C-8.94195313 52.56082031 -8.75890625 51.30914062 -8.5703125 50.01953125 C-8 47 -8 47 -7 46 C-6.71350459 44.17471672 -6.48476609 42.34029398 -6.28125 40.50390625 C-6.15363281 39.38822266 -6.02601563 38.27253906 -5.89453125 37.12304688 C-5.76433594 35.94806641 -5.63414062 34.77308594 -5.5 33.5625 C-5.24301619 31.25091786 -4.98276406 28.93969599 -4.71875 26.62890625 C-4.60466797 25.59838135 -4.49058594 24.56785645 -4.37304688 23.50610352 C-4 21 -4 21 -3 19 C-2.63141433 16.16649765 -2.29854833 13.34087396 -2 10.5 C-1.13513514 2.27027027 -1.13513514 2.27027027 0 0 Z " fill="#E69C3C" transform="translate(887,435)"/>
<path d="M0 0 C3.43752007 1.5277867 6.18953688 3.50181056 9 6 C9 6.66 9 7.32 9 8 C9.82177734 8.31324219 9.82177734 8.31324219 10.66015625 8.6328125 C13.85446717 10.4992713 16.03379681 13.11751931 18.4375 15.875 C21.75063989 19.65225518 25.03292107 22.8839446 29 26 C30.18076056 27.25981796 31.32898796 28.55116547 32.4375 29.875 C37.83025296 36.6585137 37.83025296 36.6585137 45 41 C45.495 43.475 45.495 43.475 46 46 C40.66027611 41.54303017 35.69972288 36.83264856 30.80078125 31.8984375 C30.043311 31.13955231 29.28584076 30.38066711 28.50541687 29.5987854 C26.10540019 27.19321381 23.70889497 24.78417896 21.3125 22.375 C19.69229006 20.74976791 18.0718495 19.12476571 16.45117188 17.5 C12.85410309 13.89306249 9.25783448 10.28534162 5.66812134 6.67108154 C4.29364194 5.29416303 2.90492519 3.93147181 1.51245117 2.57275391 C0 1 0 1 0 0 Z " fill="#FFC080" transform="translate(790,437)"/>
<path d="M0 0 C2.94242388 1.3256907 5.00260886 2.75992373 7.26464844 5.0534668 C7.87918884 5.67138596 8.49372925 6.28930511 9.12689209 6.9259491 C9.78111145 7.59362808 10.43533081 8.26130707 11.109375 8.94921875 C11.79501526 9.64006058 12.48065552 10.3309024 13.18707275 11.04267883 C15.37952077 13.25292138 17.5651891 15.46970992 19.75 17.6875 C21.9213312 19.88661303 24.09415664 22.08419366 26.27008057 24.27876282 C27.62202456 25.64278233 28.97129021 27.00946394 30.31732178 28.37931824 C34.1348765 32.23662766 38.06298819 35.86196624 42.22564697 39.34577942 C44.0908082 41.08466003 45.53135664 42.92075317 47 45 C46.505 45.99 46.505 45.99 46 47 C39.99942043 41.02254233 34.00151024 35.04242454 28.0070343 29.05884647 C25.22378227 26.28082361 22.43960331 23.5037429 19.65332031 20.72875977 C16.96682933 18.05309648 14.28275482 15.3750314 11.60037231 12.69524956 C10.57413275 11.67086446 9.54701034 10.64736306 8.51901245 9.62474251 C7.08459249 8.19753135 5.65353503 6.76694306 4.22265625 5.33618164 C3.40547119 4.52121719 2.58828613 3.70625275 1.74633789 2.86659241 C0 1 0 1 0 0 Z " fill="#C1230E" transform="translate(743,465)"/>
<path d="M0 0 C-2.47548882 1.65032588 -4.15647443 2.51462542 -6.89453125 3.4453125 C-7.67513916 3.71408203 -8.45574707 3.98285156 -9.26000977 4.25976562 C-10.10233154 4.54529297 -10.94465332 4.83082031 -11.8125 5.125 C-17.60424361 7.10859855 -23.37698111 9.1233331 -29.109375 11.2734375 C-30.10348389 11.64452637 -31.09759277 12.01561523 -32.12182617 12.39794922 C-34.05959713 13.1241508 -35.99474761 13.85738939 -37.92700195 14.59814453 C-38.80831787 14.92669434 -39.68963379 15.25524414 -40.59765625 15.59375 C-41.37633057 15.88958984 -42.15500488 16.18542969 -42.95727539 16.49023438 C-45 17 -45 17 -48 16 C-41.34750183 12.33433774 -34.39353948 10.01993626 -27.18701172 7.70605469 C-23.17899498 6.41210689 -19.18385028 5.07944558 -15.1875 3.75 C-14.40455566 3.4917041 -13.62161133 3.2334082 -12.81494141 2.96728516 C-3.58517202 -0.09434663 -3.58517202 -0.09434663 0 0 Z " fill="#FEFBE1" transform="translate(752,223)"/>
<path d="M0 0 C0 0.33 0 0.66 0 1 C-4.1243045 1.6503259 -8.2495585 2.29442956 -12.375 2.9375 C-13.53128906 3.11990234 -14.68757812 3.30230469 -15.87890625 3.49023438 C-25.48928252 4.98337193 -34.89111983 6.18255735 -44.625 6.0625 C-45.34300781 6.05798828 -46.06101562 6.05347656 -46.80078125 6.04882812 C-48.53389208 6.03727405 -50.2669587 6.01935158 -52 6 C-48.84728533 3.89819022 -48.03050509 3.74628899 -44.421875 3.69140625 C-43.51550293 3.66812256 -42.60913086 3.64483887 -41.67529297 3.62084961 C-40.70994629 3.60159424 -39.74459961 3.58233887 -38.75 3.5625 C-30.63879881 3.31492549 -23.27512356 2.44575968 -15.36328125 0.6328125 C-10.23083107 -0.33287499 -5.19924714 -0.26141466 0 0 Z " fill="#C31420" transform="translate(748,689)"/>
<path d="M0 0 C0 0.99 0 1.98 0 3 C-2.02650091 4.75056448 -4.02034714 6.31801639 -6.1875 7.875 C-11.14747964 11.49130622 -15.4830197 15.26981666 -19.66015625 19.80078125 C-21.02913829 21.27653626 -22.51483515 22.64123216 -24 24 C-25.32 24 -26.64 24 -28 24 C-28.33 24.99 -28.66 25.98 -29 27 C-31.0625 28.6875 -31.0625 28.6875 -33 30 C-33.66 29.67 -34.32 29.34 -35 29 C-25.28536673 18.68856332 -13.75599968 10.46747661 -2.40771484 2.07226562 C-1.02104408 1.06572481 -1.02104408 1.06572481 0 0 Z " fill="#BE232B" transform="translate(499,115)"/>
<path d="M0 0 C1.06486855 0.89301656 2.12675041 1.7895947 3.1875 2.6875 C4.07501953 3.43580078 4.07501953 3.43580078 4.98046875 4.19921875 C7.41950341 6.37406397 9.69504487 8.6833361 12 11 C12.82346924 11.82346924 13.64693848 12.64693848 14.49536133 13.49536133 C20.66357422 19.66357422 26.83178711 25.83178711 33 32 C29.2814858 32 28.68195394 31.14087832 26 28.6875 C25.319375 28.07261719 24.63875 27.45773437 23.9375 26.82421875 C23.298125 26.22222656 22.65875 25.62023437 22 25 C21.4225 24.47019531 20.845 23.94039063 20.25 23.39453125 C19 22 19 22 19 20 C18.401875 19.731875 17.80375 19.46375 17.1875 19.1875 C15.00152146 18.00082594 13.58667406 16.90400887 12 15 C12 14.34 12 13.68 12 13 C11.41605469 12.73960937 10.83210937 12.47921875 10.23046875 12.2109375 C7.85663306 10.92216506 6.22485946 9.5249146 4.3125 7.625 C3.71050781 7.03976562 3.10851562 6.45453125 2.48828125 5.8515625 C0.89864987 3.87391086 0.4094574 2.4785821 0 0 Z " fill="#C2210F" transform="translate(723,372)"/>
<path d="M0 0 C1.14934549 3.44803648 0.71652883 5.03133801 -0.796875 8.28515625 C-3.49300896 12.12802251 -7.84131553 13.56753011 -12.30078125 14.4609375 C-14.19272704 14.70961243 -16.09663079 14.86404506 -18 15 C-16.69937683 11.09813049 -15.35369544 10.87880104 -11.75 9.0625 C-4.82150699 5.70549139 -4.82150699 5.70549139 0 0 Z " fill="#F3A428" transform="translate(494,436)"/>
<path d="M0 0 C1.86495117 0.05994141 1.86495117 0.05994141 3.76757812 0.12109375 C12.91160531 0.48705265 12.91160531 0.48705265 17.4375 2.75 C2.5875 2.75 -12.2625 2.75 -27.5625 2.75 C-27.5625 2.42 -27.5625 2.09 -27.5625 1.75 C-18.2419731 -0.03388893 -9.46564865 -0.43415775 0 0 Z " fill="#FAC7CC" transform="translate(684.5625,55.25)"/>
<path d="M0 0 C3.04581486 1.36113013 5.13839026 2.89330096 7.48339844 5.25634766 C8.14378113 5.91688141 8.80416382 6.57741516 9.48455811 7.25796509 C10.18574768 7.96947723 10.88693726 8.68098938 11.609375 9.4140625 C12.33618469 10.14370209 13.06299438 10.87334167 13.81182861 11.62509155 C16.12929198 13.9537388 18.4396995 16.28924826 20.75 18.625 C22.32115444 20.20618653 23.89276371 21.78692125 25.46484375 23.3671875 C29.31518653 27.2395669 33.15976117 31.11760171 37 35 C36.505 35.99 36.505 35.99 36 37 C9.3215332 10.3215332 9.3215332 10.3215332 7.60757446 8.60366821 C6.5722596 7.57086907 5.53206328 6.54292864 4.4859314 5.52108765 C1.10296839 2.20593678 1.10296839 2.20593678 0 0 Z " fill="#BC1C25" transform="translate(527,251)"/>
<path d="M0 0 C-0.33 0.66 -0.66 1.32 -1 2 C-3.74434051 2.40847406 -6.42715635 2.70492922 -9.1875 2.9375 C-22.50532857 3.44032401 -22.50532857 3.44032401 -34 8 C-35.51928038 8.07179964 -37.04167482 8.08392007 -38.5625 8.0625 C-39.38878906 8.05347656 -40.21507812 8.04445313 -41.06640625 8.03515625 C-41.70449219 8.02355469 -42.34257813 8.01195313 -43 8 C-39.13820477 5.70545854 -34.90165354 4.93052845 -30.5625 4 C-29.76279785 3.82629883 -28.9630957 3.65259766 -28.13916016 3.47363281 C-18.80420863 1.4822263 -9.58115762 -0.37573167 0 0 Z " fill="#FCCDD1" transform="translate(657,113)"/>
<path d="M0 0 C3.16860995 3.49267233 4.01127865 7.26765865 5 11.75 C6.1465554 16.6304896 7.32704628 21.33716494 9.203125 25.99609375 C10.29549261 28.74307701 11.27832922 31.52061032 12.25 34.3125 C12.60578125 35.31925781 12.9615625 36.32601562 13.328125 37.36328125 C14 40 14 40 13 43 C0 10.19574468 0 10.19574468 0 0 Z " fill="#FDD5DC" transform="translate(423,435)"/>
<path d="M0 0 C0.66 0 1.32 0 2 0 C3.59901911 3.7058812 4.59449697 7.30646041 5.4375 11.25 C6.28362116 15.08975797 7.19815063 18.71391332 8.625 22.375 C10.86289443 28.62001429 10.74914628 35.43455256 11 42 C8.58937982 38.04955636 8.04091934 33.72555195 7.1875 29.25 C5.74611742 21.99550747 3.92881762 15.00062999 1.57495117 7.98925781 C0.63761264 5.17908229 0 2.9890862 0 0 Z " fill="#BD1F28" transform="translate(937,288)"/>
<path d="M0 0 C0.33 0 0.66 0 1 0 C1.33755943 6.32611383 1.07424083 10.34339687 -2 16 C-2.52729813 18.67554978 -2.76520193 21.27634234 -3 24 C-3.66 24 -4.32 24 -5 24 C-5.66 27.3 -6.32 30.6 -7 34 C-8.485 34.495 -8.485 34.495 -10 35 C-9.82621826 34.43039551 -9.65243652 33.86079102 -9.47338867 33.27392578 C-7.32172884 26.16772094 -5.30436778 19.02742709 -3.3125 11.875 C-2.99216797 10.72773438 -2.67183594 9.58046875 -2.34179688 8.3984375 C-1.56034193 5.59919591 -0.77976035 2.79971401 0 0 Z " fill="#C12A31" transform="translate(944,437)"/>
<path d="M0 0 C5.35570203 1.46064601 8.32570444 5.08893599 12 9 C12.7425 9.7425 13.485 10.485 14.25 11.25 C14.8275 11.8275 15.405 12.405 16 13 C16.5775 13.53625 17.155 14.0725 17.75 14.625 C19 16 19 16 19 18 C20.32 18.66 21.64 19.32 23 20 C23 20.99 23 21.98 23 23 C15.12351197 15.8932909 7.25961707 8.74549695 0 1 C0 0.67 0 0.34 0 0 Z " fill="#F97D31" transform="translate(749,397)"/>
<path d="M0 0 C0.66 0 1.32 0 2 0 C3.23030726 1.5988191 4.38640163 3.25530585 5.5 4.9375 C7.70978178 8.56770686 7.70978178 8.56770686 11 11 C11.625 13.5625 11.625 13.5625 12 16 C12.66 16 13.32 16 14 16 C14.33 17.98 14.66 19.96 15 22 C15.66 22 16.32 22 17 22 C20.10096154 27.45769231 20.10096154 27.45769231 19.58984375 30.203125 C19.39519531 30.79609375 19.20054687 31.3890625 19 32 C18.38253906 30.85144531 17.76507812 29.70289063 17.12890625 28.51953125 C12.37456364 19.7692364 7.44652606 11.38696777 1.6171875 3.30859375 C0 1 0 1 0 0 Z " fill="#C0232C" transform="translate(900,219)"/>
<path d="M0 0 C13.79861436 0.70699614 27.91933516 2.36589512 41 7 C37.32271067 8.26772077 34.36223006 7.79809246 30.5625 7.1875 C29.45003906 7.01605469 28.33757813 6.84460938 27.19140625 6.66796875 C24 6 24 6 21.6328125 4.98828125 C17.23927522 3.33907512 12.62282844 3.20845069 7.97460938 2.7890625 C2.20449162 2.20449162 2.20449162 2.20449162 0 0 Z " fill="#BC222A" transform="translate(726,61)"/>
<path d="M0 0 C3.80959129 3.80959129 4.25504113 8.52635806 4.32885742 13.76025391 C4.32345947 14.43749512 4.31806152 15.11473633 4.3125 15.8125 C4.30903564 16.51810059 4.30557129 17.22370117 4.30200195 17.95068359 C4.13456127 25.99708702 1.77537313 31.98859276 -2 39 C-2.33 39 -2.66 39 -3 39 C-3.37367266 34.64048566 -2.30624889 32.63677709 0 29 C1.77088032 24.50118271 2.35244377 20.44016003 2.625 15.625 C2.69976562 14.37976563 2.77453125 13.13453125 2.8515625 11.8515625 C2.90054687 10.91054688 2.94953125 9.96953125 3 9 C2.34 9 1.68 9 1 9 C0.67 6.03 0.34 3.06 0 0 Z " fill="#FDEAC2" transform="translate(500,394)"/>
<path d="M0 0 C3.76603869 1.56282982 6.13639151 3.9063475 8.984375 6.7890625 C9.44483215 7.25234955 9.90528931 7.7156366 10.37969971 8.19296265 C11.84125078 9.66565898 13.29567168 11.14517403 14.75 12.625 C15.74302611 13.62806322 16.73651089 14.63067257 17.73046875 15.6328125 C20.15897941 18.08330835 22.58114675 20.5399667 25 23 C24.34 23.33 23.68 23.66 23 24 C22.34 23.67 21.68 23.34 21 23 C21 22.34 21 21.68 21 21 C19.68 20.34 18.36 19.68 17 19 C17 18.34 17 17.68 17 17 C16.34 17 15.68 17 15 17 C13.5625 15.50390625 13.5625 15.50390625 12 13.5625 C9.85474956 10.84811762 9.85474956 10.84811762 7 9 C7 8.34 7 7.68 7 7 C6.34 7 5.68 7 5 7 C5 6.34 5 5.68 5 5 C4.01 5 3.02 5 2 5 C1.34 3.35 0.68 1.7 0 0 Z " fill="#FC822C" transform="translate(633,358)"/>
<path d="M0 0 C3.38672793 3.75067482 4.56383074 8.09418322 6.0625 12.8125 C6.31837891 13.59431641 6.57425781 14.37613281 6.83789062 15.18164062 C7.57492536 17.44958557 8.28845005 19.72395566 9 22 C9.21897949 22.65790527 9.43795898 23.31581055 9.66357422 23.99365234 C10.76518603 27.45546515 11.04849807 29.54758267 10 33 C8.50685407 29.0050811 7.0330494 25.00328622 5.5625 21 C5.14162109 19.87464844 4.72074219 18.74929688 4.28710938 17.58984375 C2.12411063 11.67187918 0.42453371 6.29853647 0 0 Z " fill="#BE2731" transform="translate(982,260)"/>
<path d="M0 0 C-0.79696289 0.38333496 -1.59392578 0.76666992 -2.41503906 1.16162109 C-5.38211624 2.58894866 -8.34906121 4.01655032 -11.31591797 5.44433594 C-12.59809191 6.06130729 -13.88031788 6.67817051 -15.16259766 7.29492188 C-17.00957837 8.1833067 -18.85636935 9.07208491 -20.703125 9.9609375 C-21.81333008 10.49509277 -22.92353516 11.02924805 -24.06738281 11.57958984 C-26.38720671 12.70319419 -28.69851293 13.8394629 -31 15 C-30.75 13.125 -30.75 13.125 -30 11 C-27.06004981 8.97244814 -25.72295997 9 -22 9 C-22 8.34 -22 7.68 -22 7 C-20.68 7 -19.36 7 -18 7 C-18 6.34 -18 5.68 -18 5 C-15.36 4.34 -12.72 3.68 -10 3 C-10 2.34 -10 1.68 -10 1 C-3.375 -1.125 -3.375 -1.125 0 0 Z " fill="#C22229" transform="translate(581,132)"/>
<path d="M0 0 C0.94617188 0.4846875 1.89234375 0.969375 2.8671875 1.46875 C13.09686018 6.66726464 23.47945202 11.42161338 34 16 C30.29589844 17.11572266 30.29589844 17.11572266 27.6328125 16.07421875 C26.80523438 15.61660156 25.97765625 15.15898438 25.125 14.6875 C22.38447854 13.2253559 19.97110853 11.99097142 17 11.0625 C13.09841034 9.680687 9.84880703 7.55788485 6.3671875 5.33984375 C4.19201587 4.10868225 2.4396402 3.45532455 0 3 C0 2.01 0 1.02 0 0 Z " fill="#BD252E" transform="translate(549,606)"/>
<path d="M0 0 C0.33 0 0.66 0 1 0 C1.33 13.2 1.66 26.4 2 40 C1.34 40 0.68 40 0 40 C-1.16380158 35.8804152 -1.0285021 31.97744716 -0.87890625 27.734375 C-0.85529526 26.94097717 -0.83168427 26.14757935 -0.80735779 25.33013916 C-0.73096071 22.80323317 -0.64683387 20.27665233 -0.5625 17.75 C-0.5092553 16.03386992 -0.45651507 14.31772412 -0.40429688 12.6015625 C-0.27537813 8.40083689 -0.13952774 4.20038608 0 0 Z " fill="#C43642" transform="translate(416,366)"/>
<path d="M0 0 C4.52624876 1.38302045 6.15081902 3.31282462 9 7 C10.70955281 8.55786587 12.47583563 10.03205652 14.25 11.515625 C16.66242112 13.56187506 18.86128882 15.66686053 21 18 C21 18.66 21 19.32 21 20 C21.66 20 22.32 20 23 20 C23 20.66 23 21.32 23 22 C23.99 22.33 24.98 22.66 26 23 C25.67 23.99 25.34 24.98 25 26 C21.43645168 22.46109324 17.87614125 18.91897325 14.31884766 15.3737793 C13.10717739 14.16715088 11.89461294 12.96141972 10.68115234 11.7565918 C8.9413478 10.02885937 7.20474035 8.29796998 5.46875 6.56640625 C4.92190552 6.02472305 4.37506104 5.48303986 3.81164551 4.92494202 C2.52197869 3.63546982 1.2580767 2.32031135 0 1 C0 0.67 0 0.34 0 0 Z " fill="#CD260D" transform="translate(579,303)"/>
<path d="M0 0 C-2.85003245 1.52412296 -5.58911728 2.54745112 -8.703125 3.40234375 C-9.60160156 3.65306641 -10.50007812 3.90378906 -11.42578125 4.16210938 C-12.35777344 4.41798828 -13.28976562 4.67386719 -14.25 4.9375 C-21.95175393 7.0522907 -21.95175393 7.0522907 -29.484375 9.69140625 C-33 11 -33 11 -36 11 C-36 10.34 -36 9.68 -36 9 C-32.7 8.34 -29.4 7.68 -26 7 C-26 6.34 -26 5.68 -26 5 C-25.07316406 4.79503906 -24.14632812 4.59007813 -23.19140625 4.37890625 C-21.99386719 4.10949219 -20.79632812 3.84007813 -19.5625 3.5625 C-17.77005859 3.16224609 -17.77005859 3.16224609 -15.94140625 2.75390625 C-13.1295314 2.29933252 -13.1295314 2.29933252 -12 1 C-7.96497918 0.30163101 -4.09439083 -0.12407245 0 0 Z " fill="#BD2028" transform="translate(622,118)"/>
<path d="M0 0 C4.55989241 2.05245712 7.9911983 5.00838055 11 9 C11.1393802 12.0663644 10.71175423 13.18656659 8.71484375 15.46875 C6.74690022 17.22600253 4.73844074 18.46116993 2.4375 19.75 C1.65246094 20.19859375 0.86742187 20.6471875 0.05859375 21.109375 C-0.96041016 21.55023437 -0.96041016 21.55023437 -2 22 C-2.66 21.67 -3.32 21.34 -4 21 C-0.04 18.03 3.92 15.06 8 12 C6.76722451 7.06889802 4.85042321 6.12846886 1 3 C0.67 2.01 0.34 1.02 0 0 Z " fill="#C21F29" transform="translate(847,568)"/>
<path d="M0 0 C0.33 0 0.66 0 1 0 C1.31366039 10.83870913 0.36326269 21.2643063 -1 32 C-1.33 32 -1.66 32 -2 32 C-2.05878077 28.35423608 -2.0938558 24.70859648 -2.125 21.0625 C-2.14175781 20.04091797 -2.15851562 19.01933594 -2.17578125 17.96679688 C-2.21618815 11.64311648 -1.62010013 6.11683473 0 0 Z " fill="#C2212C" transform="translate(1003,385)"/>
<path d="M0 0 C3.64692184 1.21564061 5.42089515 3.29730411 8 6 C9.18089841 7.18628296 10.36466855 8.36971182 11.55078125 9.55078125 C15.03385417 13.03385417 18.51692708 16.51692708 22 20 C21.01 20.33 20.02 20.66 19 21 C19 20.34 19 19.68 19 19 C18.34 19 17.68 19 17 19 C17 18.34 17 17.68 17 17 C16.39800781 16.73703125 15.79601562 16.4740625 15.17578125 16.203125 C12.8810142 14.93420534 11.78861649 13.79869084 10.1875 11.75 C7.51969407 8.48176717 4.62537401 5.87286042 1.3203125 3.26171875 C0.88460937 2.84535156 0.44890625 2.42898438 0 2 C0 1.34 0 0.68 0 0 Z " fill="#C42814" transform="translate(636,287)"/>
<path d="M0 0 C1.32 0.66 2.64 1.32 4 2 C3.2575 2.5775 2.515 3.155 1.75 3.75 C-0.99198619 5.90659314 -0.99198619 5.90659314 -3.1875 8.25 C-5 10 -5 10 -7 10 C-7.4021875 11.11375 -7.4021875 11.11375 -7.8125 12.25 C-8.94229421 14.86636554 -10.20893202 16.80187111 -12 19 C-12.66 18.67 -13.32 18.34 -14 18 C-9.56283615 11.77220404 -5.08211875 5.7173836 0 0 Z " fill="#FDD8DE" transform="translate(479,206)"/>
<path d="M0 0 C4.19427059 2.22446136 6.89738518 4.86464512 10 8.4375 C13.12441997 12.02570106 16.19960011 15.12934079 20 18 C19.67 18.66 19.34 19.32 19 20 C14.49970405 17.81803833 11.79884736 14.70088554 8.6484375 10.9375 C7.0525748 8.99244543 7.0525748 8.99244543 5.2890625 7.375 C4 6 4 6 4 4 C2.68 3.34 1.36 2.68 0 2 C0 1.34 0 0.68 0 0 Z " fill="#C91805" transform="translate(767,416)"/>
<path d="M0 0 C0.33 0 0.66 0 1 0 C0.89000392 3.75059803 0.75940131 7.50020344 0.625 11.25 C0.5940625 12.31347656 0.563125 13.37695312 0.53125 14.47265625 C0.49257813 15.49746094 0.45390625 16.52226562 0.4140625 17.578125 C0.3826416 18.52075195 0.3512207 19.46337891 0.31884766 20.43457031 C-0.00600977 23.04835429 -0.67676162 24.74353034 -2 27 C-2.66 27 -3.32 27 -4 27 C-3.28174711 20.97504376 -2.39912131 14.99057867 -1.4375 9 C-1.29892578 8.12988281 -1.16035156 7.25976562 -1.01757812 6.36328125 C-0.67957148 4.24199817 -0.33995416 2.12097184 0 0 Z " fill="#FDEBC2" transform="translate(883,470)"/>
<path d="M0 0 C6.02979682 5.11182775 9.53391858 15.34379702 11 23 C10.53515625 25.18359375 10.53515625 25.18359375 10 27 C9.61328125 25.94941406 9.2265625 24.89882813 8.828125 23.81640625 C5.44941172 14.63086745 5.44941172 14.63086745 1.625 5.625 C0 2 0 2 0 0 Z " fill="#E29E43" transform="translate(881,298)"/>
<path d="M0 0 C1.2890625 0.01289063 2.578125 0.02578125 3.90625 0.0390625 C7.21412905 0.34827728 9.52939566 0.94682484 12.5 2.375 C7.54894471 3.98346466 2.36404017 3.39486437 -2.7734375 3.3125 C-6.14049377 3.36897055 -9.20356519 3.72183645 -12.5 4.375 C-8.38339303 0.36922475 -5.67715873 -0.12489749 0 0 Z " fill="#FEEBBE" transform="translate(764.5,218.625)"/>
<path d="M0 0 C1.45922693 0.11409593 2.91740598 0.24165544 4.375 0.375 C5.59316406 0.47941406 5.59316406 0.47941406 6.8359375 0.5859375 C9 1 9 1 11 3 C8.36 2.67 5.72 2.34 3 2 C3 3.98 3 5.96 3 8 C3.99 8 4.98 8 6 8 C6 8.66 6 9.32 6 10 C4.02 9.34 2.04 8.68 0 8 C0 5.36 0 2.72 0 0 Z " fill="#EB9A2A" transform="translate(476,365)"/>
<path d="M0 0 C-5.18082051 3.34594658 -8.84777564 4.56826496 -15 5 C-15.33 5.99 -15.66 6.98 -16 8 C-18.64 8 -21.28 8 -24 8 C-20.04674034 5.36449356 -15.87870021 3.95045928 -11.4375 2.3125 C-10.56158203 1.97927734 -9.68566406 1.64605469 -8.78320312 1.30273438 C-7.94595703 0.99271484 -7.10871094 0.68269531 -6.24609375 0.36328125 C-5.47966553 0.07751221 -4.7132373 -0.20825684 -3.92358398 -0.50268555 C-2 -1 -2 -1 0 0 Z " fill="#C02B32" transform="translate(588,73)"/>
<path d="M0 0 C1.05058594 0.13277344 2.10117187 0.26554687 3.18359375 0.40234375 C10.4508654 1.31767392 17.71672222 2.21964881 25 3 C25 3.33 25 3.66 25 4 C8.29157175 4.55353075 8.29157175 4.55353075 0 1 C0 0.67 0 0.34 0 0 Z " fill="#EAA34B" transform="translate(487,504)"/>
<path d="M0 0 C4.91935902 4.11619836 9.52647956 8.40410362 14 13 C13.01 13.33 12.02 13.66 11 14 C11 13.34 11 12.68 11 12 C10.4225 11.731875 9.845 11.46375 9.25 11.1875 C6.94449957 9.97070811 4.97943808 8.69666121 3 7 C3 6.34 3 5.68 3 5 C2.34 5 1.68 5 1 5 C0.67 3.35 0.34 1.7 0 0 Z " fill="#C12311" transform="translate(810,458)"/>
<path d="M0 0 C-5.92345204 3.8132892 -11.84065508 7.57814171 -18 11 C-17.34 9.68 -16.68 8.36 -16 7 C-15.34 7 -14.68 7 -14 7 C-14 6.34 -14 5.68 -14 5 C-12.02 4.34 -10.04 3.68 -8 3 C-8 2.34 -8 1.68 -8 1 C-3.375 -1.125 -3.375 -1.125 0 0 Z " fill="#C2272E" transform="translate(549,148)"/>
<path d="M0 0 C4.65425468 0.64344535 8.87777764 1.8296374 13.3125 3.375 C14.54613281 3.79523437 15.77976562 4.21546875 17.05078125 4.6484375 C18.02402344 5.09445312 18.99726562 5.54046875 20 6 C20.33 6.99 20.66 7.98 21 9 C13.81783567 6.72564796 6.9241798 3.96415819 0 1 C0 0.67 0 0.34 0 0 Z " fill="#C32936" transform="translate(552,667)"/>
<path d="M0 0 C3.33727786 1.17255709 5.77437487 2.18868404 8 5 C8 5.66 8 6.32 8 7 C8.66 7 9.32 7 10 7 C10 7.66 10 8.32 10 9 C11.32 9.66 12.64 10.32 14 11 C14 11.66 14 12.32 14 13 C14.66 13.33 15.32 13.66 16 14 C13 14 13 14 11.3515625 12.64453125 C10.78179688 12.03996094 10.21203125 11.43539062 9.625 10.8125 C9.0165625 10.17570313 8.408125 9.53890625 7.78125 8.8828125 C7.1934375 8.26148438 6.605625 7.64015625 6 7 C5.04474366 6.05936493 4.0868512 5.12139041 3.125 4.1875 C1 2 1 2 0 0 Z " fill="#C52C36" transform="translate(805,527)"/>
<path d="M0 0 C0.33 0 0.66 0 1 0 C0.51298949 7.59064664 -0.99763587 14.67059167 -3 22 C-3.33 22 -3.66 22 -4 22 C-4.54249536 13.99819339 -2.60838688 7.53404602 0 0 Z " fill="#C01922" transform="translate(997,435)"/>
<path d="M0 0 C0.66 0.33 1.32 0.66 2 1 C1.38511719 1.26554688 0.77023437 1.53109375 0.13671875 1.8046875 C-0.67152344 2.15789062 -1.47976563 2.51109375 -2.3125 2.875 C-3.11300781 3.22304687 -3.91351562 3.57109375 -4.73828125 3.9296875 C-7.1961834 5.02571894 -7.1961834 5.02571894 -10 7 C-12.12109375 7.66796875 -12.12109375 7.66796875 -14.4375 8.1875 C-15.58025391 8.45626953 -15.58025391 8.45626953 -16.74609375 8.73046875 C-19.14620939 9.01748431 -20.69593175 8.64054005 -23 8 C-21.13794922 7.38511719 -21.13794922 7.38511719 -19.23828125 6.7578125 C-17.5963275 6.21362211 -15.9544019 5.66934681 -14.3125 5.125 C-13.49587891 4.85558594 -12.67925781 4.58617187 -11.83789062 4.30859375 C-8.51950607 3.20694382 -5.26240296 2.11161658 -2.04296875 0.7421875 C-1.36878906 0.49726563 -0.69460938 0.25234375 0 0 Z " fill="#F3D994" transform="translate(749,224)"/>
<path d="M0 0 C0.97918775 3.07556958 1.1498998 3.68592423 -0.3125 6.75 C-0.869375 7.4925 -1.42625 8.235 -2 9 C-2.66 9 -3.32 9 -4 9 C-4.33 10.98 -4.66 12.96 -5 15 C-5.66 15 -6.32 15 -7 15 C-7 15.66 -7 16.32 -7 17 C-7.66 17 -8.32 17 -9 17 C-7.51481201 12.95698825 -5.57122002 9.38853744 -3.375 5.6875 C-2.74335938 4.61886719 -2.11171875 3.55023438 -1.4609375 2.44921875 C-0.97882813 1.64097656 -0.49671875 0.83273438 0 0 Z " fill="#BA262E" transform="translate(410,211)"/>
<path d="M0 0 C0.66 0 1.32 0 2 0 C0.3341708 6.16356805 -2.87805286 11.48259656 -6 17 C-6.33 17 -6.66 17 -7 17 C-7 15.35 -7 13.7 -7 12 C-6.34 12 -5.68 12 -5 12 C-4.7834375 10.8553125 -4.7834375 10.8553125 -4.5625 9.6875 C-4 7 -4 7 -3 4 C-2.34 4 -1.68 4 -1 4 C-0.67 2.68 -0.34 1.36 0 0 Z " fill="#C2232D" transform="translate(970,515)"/>
<path d="M0 0 C2 1.3125 2 1.3125 4 3 C4 3.99 4 4.98 4 6 C1.75438718 6.86762314 -0.49526255 7.7192103 -2.75 8.5625 C-3.38421875 8.80935547 -4.0184375 9.05621094 -4.671875 9.31054688 C-8.11009179 10.58197079 -10.52168882 11.46686355 -14 10 C-12.23141309 9.32739649 -10.46003984 8.66211605 -8.6875 8 C-7.70136719 7.62875 -6.71523438 7.2575 -5.69921875 6.875 C-3 6 -3 6 0 6 C0 4.02 0 2.04 0 0 Z " fill="#F6DCA3" transform="translate(560,285)"/>
<path d="M0 0 C5.50719921 3.90510489 10.35827355 8.09717644 15 13 C14.34 13.66 13.68 14.32 13 15 C10.82722286 12.88094537 8.66173092 10.75527122 6.5 8.625 C5.87996094 8.02171875 5.25992188 7.4184375 4.62109375 6.796875 C4.03457031 6.21679688 3.44804688 5.63671875 2.84375 5.0390625 C2.29912109 4.50490723 1.75449219 3.97075195 1.19335938 3.42041016 C0 2 0 2 0 0 Z " fill="#C52916" transform="translate(620,271)"/>
<path d="M0 0 C5.66129431 4.69766975 10.85228904 9.74723372 16 15 C15.01 15.495 15.01 15.495 14 16 C13.34 15.319375 12.68 14.63875 12 13.9375 C9.07662304 10.980521 5.89468667 8.36917167 2.671875 5.74609375 C0.82974853 3.82219063 0.38695481 2.60056393 0 0 Z " fill="#C31B08" transform="translate(660,310)"/>
<path d="M0 0 C0 0.33 0 0.66 0 1 C-2.72827365 1.50534727 -5.45744694 2.00443845 -8.1875 2.5 C-8.95642578 2.64308594 -9.72535156 2.78617188 -10.51757812 2.93359375 C-14.39421773 3.63238715 -18.041471 4.19039017 -22 4 C-14.61415067 0.02300421 -8.25785714 -0.24052011 0 0 Z " fill="#C1242C" transform="translate(748,689)"/>
<path d="M0 0 C7.49612516 1.52463563 14.71359134 3.68006154 22 6 C22 6.33 22 6.66 22 7 C14.24288713 6.38435612 5.98837676 5.46764835 0 0 Z " fill="#BC1F28" transform="translate(588,625)"/>
<path d="M0 0 C0 0.66 0 1.32 0 2 C-1.0725 2.556875 -2.145 3.11375 -3.25 3.6875 C-7.36406411 6.04434239 -10.25118583 8.69115632 -11.75 13.3125 C-11.8325 13.869375 -11.915 14.42625 -12 15 C-12.66 15 -13.32 15 -14 15 C-12.39592305 8.87534255 -9.52328549 4.76043173 -4.3125 1.125 C-2 0 -2 0 0 0 Z " fill="#ECA02F" transform="translate(547,433)"/>
<path d="M0 0 C3.43752007 1.5277867 6.18953688 3.50181056 9 6 C9 6.66 9 7.32 9 8 C9.66 8 10.32 8 11 8 C12.2890625 9.53125 12.2890625 9.53125 13.625 11.5 C14.07101562 12.1496875 14.51703125 12.799375 14.9765625 13.46875 C15.48316406 14.22671875 15.48316406 14.22671875 16 15 C11.69422496 13.33830526 8.90988145 10.16919694 5.75 6.9375 C5.19570313 6.38255859 4.64140625 5.82761719 4.0703125 5.25585938 C0 1.14043257 0 1.14043257 0 0 Z " fill="#FFBB7A" transform="translate(649,298)"/>
<path d="M0 0 C-2.40615652 2.65506927 -4.17959767 3.92164697 -7.78125 4.265625 C-10.53033855 4.25145444 -13.25655321 4.17296687 -16 4 C-13.03017788 2.41839705 -10.09120779 1.29656358 -6.875 0.3125 C-6.00617187 0.04050781 -5.13734375 -0.23148438 -4.2421875 -0.51171875 C-2 -1 -2 -1 0 0 Z " fill="#C52A32" transform="translate(769,629)"/>
<path d="M0 0 C-1.31497169 2.62994337 -2.27199218 2.92315481 -5 4 C-8.75492694 4.67052267 -12.18072282 5 -16 5 C-13.13879225 3.09252817 -10.64745007 1.99646294 -7.4375 0.8125 C-6.46683594 0.44769531 -5.49617187 0.08289063 -4.49609375 -0.29296875 C-2 -1 -2 -1 0 0 Z " fill="#C02028" transform="translate(786,623)"/>
<path d="M0 0 C0.66 0 1.32 0 2 0 C3.61393669 1.88341969 5.09576022 3.75727297 6.5625 5.75 C7.1802832 6.55824219 7.1802832 6.55824219 7.81054688 7.3828125 C9.8877179 10.1705052 11.5176638 12.51364009 12 16 C7.1693267 11.60847882 3.52339133 6.48308737 0 1 C0 0.67 0 0.34 0 0 Z " fill="#C0252F" transform="translate(423,561)"/>
<path d="M0 0 C2.4375 0.8125 2.4375 0.8125 5 2 C5.33 2.99 5.66 3.98 6 5 C6.928125 5.4640625 6.928125 5.4640625 7.875 5.9375 C10.40597375 7.20298687 11.44848558 8.67272837 13 11 C10 11 10 11 7.51953125 8.84765625 C6.62621094 7.92855469 5.73289062 7.00945313 4.8125 6.0625 C3.91144531 5.14597656 3.01039063 4.22945312 2.08203125 3.28515625 C0 1 0 1 0 0 Z " fill="#C9323A" transform="translate(824,546)"/>
<path d="M0 0 C1.39195915 4.17587745 -0.17676781 6.13474776 -2 10 C-2.33 9.34 -2.66 8.68 -3 8 C-3.763125 8.350625 -4.52625 8.70125 -5.3125 9.0625 C-8 10 -8 10 -11 9 C-10.37351562 8.60167969 -9.74703125 8.20335937 -9.1015625 7.79296875 C-8.28429687 7.26316406 -7.46703125 6.73335938 -6.625 6.1875 C-5.81289063 5.66542969 -5.00078125 5.14335937 -4.1640625 4.60546875 C-1.76649759 3.01562803 -1.76649759 3.01562803 0 0 Z " fill="#EAA345" transform="translate(494,436)"/>
<path d="M0 0 C5.29012124 4.40843437 10.18808428 9.07559794 15 14 C10.09079946 14 7.39613327 10.29363428 4 7 C0 2.5 0 2.5 0 0 Z " fill="#C41F0B" transform="translate(741,390)"/>
<path d="M0 0 C-12.109375 5.328125 -12.109375 5.328125 -19 5 C-16.01243632 3.00829088 -13.44575614 1.97092021 -10.0625 0.8125 C-9.02222656 0.44769531 -7.98195313 0.08289063 -6.91015625 -0.29296875 C-4.04543948 -0.98896034 -2.71018643 -1.02529944 0 0 Z " fill="#F2D88E" transform="translate(518,307)"/>
<path d="M0 0 C2.52259061 1.97420135 2.9929808 2.96745642 3.6875 6.1875 C3.790625 7.115625 3.89375 8.04375 4 9 C4.99 9.33 5.98 9.66 7 10 C7.33 12.64 7.66 15.28 8 18 C5.45339888 15.45339888 4.3836156 12.83116713 2.875 9.5625 C2.33617187 8.40878906 1.79734375 7.25507813 1.2421875 6.06640625 C0 3 0 3 0 0 Z " fill="#C0232D" transform="translate(390,502)"/>
<path d="M0 0 C-1.39750048 3.15835107 -3.05198234 5.32272825 -5.5 7.75 C-6.41265625 8.67039062 -6.41265625 8.67039062 -7.34375 9.609375 C-9 11 -9 11 -11 11 C-9.60249952 7.84164893 -7.94801766 5.67727175 -5.5 3.25 C-4.8915625 2.63640625 -4.283125 2.0228125 -3.65625 1.390625 C-2 0 -2 0 0 0 Z " fill="#EB9D25" transform="translate(613,349)"/>
<path d="M0 0 C-2.75927344 2.75927344 -5.21154052 2.51783243 -9 3 C-9.33 3.33 -9.66 3.66 -10 4 C-11.51928038 4.07179964 -13.04167482 4.08392007 -14.5625 4.0625 C-15.38878906 4.05347656 -16.21507812 4.04445313 -17.06640625 4.03515625 C-17.70449219 4.02355469 -18.34257813 4.01195313 -19 4 C-12.8100177 0.73344615 -6.8974189 -0.28739245 0 0 Z " fill="#FCD6D9" transform="translate(633,117)"/>
<path d="M0 0 C0 4.01262338 -1.73091135 5.76826769 -4 9 C-4.33 9.66 -4.66 10.32 -5 11 C-5.99 10.01 -6.98 9.02 -8 8 C-6.6636586 3.99097581 -4.50572968 3.19108105 -1 1 C-0.67 0.67 -0.34 0.34 0 0 Z " fill="#FEECD4" transform="translate(874,505)"/>
<path d="M0 0 C-4.74354436 2.22656164 -8.72250715 3.46148032 -14 4 C-14 3.34 -14 2.68 -14 2 C-9.67824205 -0.88117196 -4.98826624 -1.79577585 0 0 Z " fill="#FEF5D4" transform="translate(496,313)"/>
<path d="M0 0 C1.25348607 2.95106435 1.01044806 3.97406463 -0.21484375 7.015625 C-1.06755859 8.61664063 -1.06755859 8.61664063 -1.9375 10.25 C-2.50339844 11.32765625 -3.06929688 12.4053125 -3.65234375 13.515625 C-4.09707031 14.33546875 -4.54179687 15.1553125 -5 16 C-5.66 16 -6.32 16 -7 16 C-5.35433477 10.31497465 -2.70967216 5.23318364 0 0 Z " fill="#C0282F" transform="translate(398,232)"/>
<path d="M0 0 C1.32 0.33 2.64 0.66 4 1 C4 1.66 4 2.32 4 3 C4.61875 3.2475 5.2375 3.495 5.875 3.75 C8.38710296 5.22770762 8.76107344 6.43955177 10 9 C10.99 9.33 11.98 9.66 13 10 C12.34 10.66 11.68 11.32 11 12 C10.29875 11.113125 9.5975 10.22625 8.875 9.3125 C6.97124181 7.01053451 5.0056341 5.07063982 2.6875 3.1875 C1.800625 2.465625 0.91375 1.74375 0 1 C0 0.67 0 0.34 0 0 Z " fill="#C52E39" transform="translate(506,231)"/>
<path d="M0 0 C1.4540625 0.0309375 1.4540625 0.0309375 2.9375 0.0625 C0.0860357 1.9634762 -2.35960476 3.02515899 -5.5625 4.1875 C-6.5215625 4.54070312 -7.480625 4.89390625 -8.46875 5.2578125 C-11.0625 6.0625 -11.0625 6.0625 -14.0625 6.0625 C-14.0625 5.4025 -14.0625 4.7425 -14.0625 4.0625 C-13.35222656 3.85753906 -12.64195312 3.65257813 -11.91015625 3.44140625 C-10.99105469 3.17199219 -10.07195313 2.90257813 -9.125 2.625 C-7.75021484 2.22474609 -7.75021484 2.22474609 -6.34765625 1.81640625 C-0.89748647 0.01831605 -0.89748647 0.01831605 0 0 Z " fill="#FEDBDD" transform="translate(586.0625,70.9375)"/>
<path d="M0 0 C4.92980953 2.00844092 8.09403383 5.64105074 11 10 C8 10 8 10 5.95703125 8.06640625 C5.24933594 7.24011719 4.54164063 6.41382813 3.8125 5.5625 C3.09707031 4.73878906 2.38164063 3.91507812 1.64453125 3.06640625 C0 1 0 1 0 0 Z " fill="#F77A2C" transform="translate(773,420)"/>
<path d="M0 0 C0.66 0.33 1.32 0.66 2 1 C1.04855402 2.81612488 0.08863067 4.62781081 -0.875 6.4375 C-1.40867187 7.44683594 -1.94234375 8.45617187 -2.4921875 9.49609375 C-4 12 -4 12 -6 13 C-5.21681311 9.08406554 -3.60820142 5.63593365 -2 2 C-1.34 2 -0.68 2 0 2 C0 1.34 0 0.68 0 0 Z " fill="#BE222D" transform="translate(961,532)"/>
<path d="M0 0 C-5.31944433 4.45683174 -10.18848171 4.75759721 -17 5 C-13.97546033 2.98364022 -11.36924652 1.96753498 -7.9375 0.8125 C-6.87402344 0.44769531 -5.81054688 0.08289063 -4.71484375 -0.29296875 C-2 -1 -2 -1 0 0 Z " fill="#F2D68A" transform="translate(672,253)"/>
<path d="M0 0 C0.33 0 0.66 0 1 0 C1 4.29 1 8.58 1 13 C0.01 13.33 -0.98 13.66 -2 14 C-1.85795259 12.41632253 -1.71119847 10.83306682 -1.5625 9.25 C-1.48128906 8.36828125 -1.40007813 7.4865625 -1.31640625 6.578125 C-1.03761535 4.30649548 -0.61209423 2.20148177 0 0 Z " fill="#FEF3D3" transform="translate(886,454)"/>
<path d="M0 0 C2.31 0 4.62 0 7 0 C6.67 0.66 6.34 1.32 6 2 C6.24756445 4.07361988 6.24756445 4.07361988 7 6 C7.66 6.33 8.32 6.66 9 7 C6 7 6 7 4.39453125 5.46875 C3.87246094 4.8190625 3.35039063 4.169375 2.8125 3.5 C2.28269531 2.8503125 1.75289062 2.200625 1.20703125 1.53125 C0.80871094 1.0259375 0.41039062 0.520625 0 0 Z " fill="#F88532" transform="translate(664,313)"/>
<path d="M0 0 C0.33 0 0.66 0 1 0 C1.41176754 3.60296594 1.1535853 4.78402067 -1 7.8125 C-1.66 8.534375 -2.32 9.25625 -3 10 C-3.99 9.67 -4.98 9.34 -6 9 C-5.02501855 7.4972763 -4.04490611 5.99788037 -3.0625 4.5 C-2.51722656 3.6646875 -1.97195313 2.829375 -1.41015625 1.96875 C-0.94480469 1.3190625 -0.47945313 0.669375 0 0 Z " fill="#C01C26" transform="translate(417,200)"/>
<path d="M0 0 C0.43570313 0.37511719 0.87140625 0.75023437 1.3203125 1.13671875 C5.18607599 4.45859777 9.07657648 7.74642927 13 11 C12.34 11.66 11.68 12.32 11 13 C10.278125 12.2575 9.55625 11.515 8.8125 10.75 C6.1148314 7.99281683 6.1148314 7.99281683 3.25 5.9375 C0.79862846 3.82659673 0.58204036 3.04305882 0 0 Z " fill="#B9232C" transform="translate(897,138)"/>
<path d="M0 0 C4.27454425 2.7479213 8.14126153 5.69250989 12 9 C9 10 9 10 6.3125 8.75 C5.549375 8.1725 4.78625 7.595 4 7 C4 6.01 4 5.02 4 4 C2.68 3.34 1.36 2.68 0 2 C0 1.34 0 0.68 0 0 Z " fill="#B81E25" transform="translate(885,128)"/>
<path d="M0 0 C-3.32851768 3.01343955 -5.81882813 3.44667544 -10.25 3.6875 C-11.32765625 3.75324219 -12.4053125 3.81898438 -13.515625 3.88671875 C-14.74539063 3.94279297 -14.74539063 3.94279297 -16 4 C-13.03476487 2.02317658 -10.84158175 1.24171007 -7.4375 0.3125 C-6.46683594 0.04050781 -5.49617187 -0.23148438 -4.49609375 -0.51171875 C-2 -1 -2 -1 0 0 Z " fill="#FCCED5" transform="translate(781,682)"/>
<path d="M0 0 C7.43438914 1.82352941 7.43438914 1.82352941 10 5 C10.721875 5.721875 11.44375 6.44375 12.1875 7.1875 C12.785625 7.785625 13.38375 8.38375 14 9 C10.40241608 7.67726488 7.36262865 6.0805802 4.1875 3.9375 C3.39730469 3.41027344 2.60710937 2.88304687 1.79296875 2.33984375 C1.20128906 1.89769531 0.60960937 1.45554687 0 1 C0 0.67 0 0.34 0 0 Z " fill="#C02C33" transform="translate(504,640)"/>
<path d="M0 0 C4 0 4 0 6.4375 2.1875 C7.283125 3.115625 8.12875 4.04375 9 5 C9.928125 5.928125 10.85625 6.85625 11.8125 7.8125 C12.534375 8.534375 13.25625 9.25625 14 10 C10.19136032 8.65378455 7.34590149 6.94641263 4.1875 4.4375 C3.39730469 3.81746094 2.60710937 3.19742188 1.79296875 2.55859375 C0.90544922 1.78708984 0.90544922 1.78708984 0 1 C0 0.67 0 0.34 0 0 Z " fill="#BE242B" transform="translate(490,630)"/>
<path d="M0 0 C1 3 1 3 0.00390625 5.48046875 C-0.47175781 6.37378906 -0.94742188 7.26710938 -1.4375 8.1875 C-1.91058594 9.08855469 -2.38367188 9.98960937 -2.87109375 10.91796875 C-3.24363281 11.60503906 -3.61617187 12.29210937 -4 13 C-5.04449911 9.86650268 -4.93423645 9.01031744 -4 6 C-3.34 6 -2.68 6 -2 6 C-2 4.35 -2 2.7 -2 1 C-1.34 0.67 -0.68 0.34 0 0 Z " fill="#BF202A" transform="translate(977,501)"/>
<path d="M0 0 C3.44428265 1.44781793 5.36130962 3.27694609 7.75 6.125 C8.36359375 6.84945313 8.9771875 7.57390625 9.609375 8.3203125 C10.29773438 9.15175781 10.29773438 9.15175781 11 10 C10.01 10.495 10.01 10.495 9 11 C7.33333333 9.33333333 5.66666667 7.66666667 4 6 C3.236875 5.278125 2.47375 4.55625 1.6875 3.8125 C0 2 0 2 0 0 Z " fill="#C3240F" transform="translate(706,356)"/>
<path d="M0 0 C1.14926266 0.95421808 2.29430541 1.91352045 3.4375 2.875 C4.07558594 3.40867187 4.71367188 3.94234375 5.37109375 4.4921875 C7 6 7 6 8 8 C5.69 7.34 3.38 6.68 1 6 C0.67 4.02 0.34 2.04 0 0 Z " fill="#FEC776" transform="translate(770,493)"/>
<path d="M0 0 C7.48291572 6.15034169 7.48291572 6.15034169 10 10 C9.01 10 8.02 10 7 10 C7 9.34 7 8.68 7 8 C6.401875 7.7525 5.80375 7.505 5.1875 7.25 C2.68373081 5.81927475 1.51927612 4.4308418 0 2 C0 1.34 0 0.68 0 0 Z " fill="#C22B15" transform="translate(796,444)"/>
<path d="M0 0 C4.13621084 3.3810038 7.81316569 6.66590534 11 11 C7.20450741 10.45418801 5.69020705 8.94590705 3.25 6.0625 C2.63640625 5.35222656 2.0228125 4.64195312 1.390625 3.91015625 C0 2 0 2 0 0 Z " fill="#C71604" transform="translate(756,405)"/>
<path d="M0 0 C0.33 0 0.66 0 1 0 C1.57563851 9.78585462 1.57563851 9.78585462 -2 14 C-4.1875 15.3125 -4.1875 15.3125 -6 16 C-6 15.34 -6 14.68 -6 14 C-5.34 14 -4.68 14 -4 14 C-3.67 13.01 -3.34 12.02 -3 11 C-2.34 11 -1.68 11 -1 11 C-0.67 7.37 -0.34 3.74 0 0 Z " fill="#EA9E2A" transform="translate(834,354)"/>
<path d="M0 0 C1.32 0.33 2.64 0.66 4 1 C4 1.66 4 2.32 4 3 C4.598125 3.268125 5.19625 3.53625 5.8125 3.8125 C7.97224808 4.98493467 9.35790256 6.19369282 11 8 C10.67 8.66 10.34 9.32 10 10 C8.33037631 8.52417192 6.6643694 7.04425109 5 5.5625 C4.071875 4.73878906 3.14375 3.91507812 2.1875 3.06640625 C1.465625 2.38449219 0.74375 1.70257813 0 1 C0 0.67 0 0.34 0 0 Z " fill="#C82816" transform="translate(605,329)"/>
<path d="M0 0 C4.38889325 0.66498383 7.9811485 2.18757677 12 4 C12 4.66 12 5.32 12 6 C10.55903414 5.57405412 9.12231288 5.13373367 7.6875 4.6875 C6.88699219 4.44386719 6.08648438 4.20023438 5.26171875 3.94921875 C2.90035427 2.95817977 1.66120007 1.91925057 0 0 Z " fill="#C1252D" transform="translate(540,661)"/>
<path d="M0 0 C0.33 0.66 0.66 1.32 1 2 C0.34 2 -0.32 2 -1 2 C-1 2.66 -1 3.32 -1 4 C-4.6678852 5.96189209 -7.87248551 7.39301257 -12 8 C-9.69716746 5.45868642 -7.32686207 3.92889705 -4.3125 2.3125 C-3.50425781 1.87550781 -2.69601562 1.43851563 -1.86328125 0.98828125 C-1.24839844 0.66214844 -0.63351562 0.33601562 0 0 Z " fill="#BB252D" transform="translate(822,603)"/>
<path d="M0 0 C7.48291572 6.15034169 7.48291572 6.15034169 10 10 C9.67 10.66 9.34 11.32 9 12 C7.49105554 10.57189185 5.99307655 9.13218981 4.5 7.6875 C3.6646875 6.88699219 2.829375 6.08648437 1.96875 5.26171875 C0 3 0 3 0 0 Z " fill="#D12005" transform="translate(780,500)"/>
<path d="M0 0 C0.33 0 0.66 0 1 0 C1.56561146 5.65611463 -0.28608722 9.22642128 -3 14 C-3.33 14 -3.66 14 -4 14 C-4.37169941 9.6635069 -3.31392722 7.60972647 -1 4 C-0.30420546 1.80869466 -0.30420546 1.80869466 0 0 Z " fill="#FEF6D9" transform="translate(501,419)"/>
<path d="M0 0 C1.12894876 0.93274109 2.25300876 1.87140122 3.375 2.8125 C4.00148438 3.33457031 4.62796875 3.85664063 5.2734375 4.39453125 C7 6 7 6 9 9 C6 9 6 9 4.39453125 7.5390625 C3.61142578 6.59160156 3.61142578 6.59160156 2.8125 5.625 C2.28269531 4.99851562 1.75289062 4.37203125 1.20703125 3.7265625 C0 2 0 2 0 0 Z " fill="#C83219" transform="translate(723,372)"/>
<path d="M0 0 C0.66 0.33 1.32 0.66 2 1 C-0.475 6.94 -0.475 6.94 -3 13 C-3.33 13 -3.66 13 -4 13 C-3.50269348 8.02693484 -2.44697666 4.36200187 0 0 Z " fill="#C01F26" transform="translate(437,270)"/>
<path d="M0 0 C1.98 0 3.96 0 6 0 C5.67 0.99 5.34 1.98 5 3 C5.99 3 6.98 3 8 3 C7.67 4.32 7.34 5.64 7 7 C5.83040013 6.02433888 4.66438823 5.044375 3.5 4.0625 C2.8503125 3.51722656 2.200625 2.97195313 1.53125 2.41015625 C1.0259375 1.94480469 0.520625 1.47945313 0 1 C0 0.67 0 0.34 0 0 Z " fill="#F9AE6E" transform="translate(620,270)"/>
<path d="M0 0 C0.99 0.33 1.98 0.66 3 1 C-1.455 4.465 -1.455 4.465 -6 8 C-6.33 7.34 -6.66 6.68 -7 6 C-5.625 4.5 -5.625 4.5 -4 3 C-3.34 3 -2.68 3 -2 3 C-2 2.34 -2 1.68 -2 1 C-1.34 0.67 -0.68 0.34 0 0 Z " fill="#C1212A" transform="translate(873,631)"/>
<path d="M0 0 C0.33 1.32 0.66 2.64 1 4 C-1.64 4.33 -4.28 4.66 -7 5 C-6 2 -6 2 -4.0625 0.8125 C-2 0 -2 0 0 0 Z " fill="#EAAE49" transform="translate(483,446)"/>
<path d="M0 0 C0.33 0 0.66 0 1 0 C1.02696365 1.79158489 1.04637917 3.58328473 1.0625 5.375 C1.07410156 6.37273437 1.08570313 7.37046875 1.09765625 8.3984375 C1 11 1 11 0 13 C-0.66 13 -1.32 13 -2 13 C-1.48041715 8.62065881 -0.94324258 4.31196609 0 0 Z " fill="#C72831" transform="translate(372,303)"/>
<path d="M0 0 C1.12894876 0.93274109 2.25300876 1.87140122 3.375 2.8125 C4.00148438 3.33457031 4.62796875 3.85664063 5.2734375 4.39453125 C7 6 7 6 9 9 C8.01 9 7.02 9 6 9 C5.731875 8.360625 5.46375 7.72125 5.1875 7.0625 C4.11332248 4.66868314 4.11332248 4.66868314 1 4 C0.3125 1.9375 0.3125 1.9375 0 0 Z " fill="#BD2E3A" transform="translate(910,150)"/>
<path d="M0 0 C-3.40219265 2.74792483 -7.48464588 6 -12 6 C-12 5.34 -12 4.68 -12 4 C-10.35 3.67 -8.7 3.34 -7 3 C-7 2.34 -7 1.68 -7 1 C-4.53721199 -0.231394 -2.7204945 -0.07159196 0 0 Z " fill="#FDD6DB" transform="translate(548,87)"/>
<path d="M0 0 C0.33 0 0.66 0 1 0 C1.08153933 1.58246707 1.13943557 3.16616273 1.1875 4.75 C1.23970703 6.07257813 1.23970703 6.07257813 1.29296875 7.421875 C0.94923684 10.44671583 -0.00227459 11.75583602 -2 14 C-1.03644647 4.58997722 -1.03644647 4.58997722 0 0 Z " fill="#C3202A" transform="translate(944,437)"/>
<path d="M0 0 C4.2742558 1.5830577 6.26531794 4.50568404 9 8 C8.01 8 7.02 8 6 8 C6 7.34 6 6.68 6 6 C5.01 5.67 4.02 5.34 3 5 C3 4.34 3 3.68 3 3 C2.01 2.67 1.02 2.34 0 2 C0 1.34 0 0.68 0 0 Z " fill="#F97A27" transform="translate(622,347)"/>
<path d="M0 0 C0.66 0.33 1.32 0.66 2 1 C0.68 5.29 -0.64 9.58 -2 14 C-2.33 14 -2.66 14 -3 14 C-2.88570603 12.22844346 -2.75816963 10.45773771 -2.625 8.6875 C-2.55539062 7.70136719 -2.48578125 6.71523438 -2.4140625 5.69921875 C-2 3 -2 3 0 0 Z " fill="#BE1B26" transform="translate(429,291)"/>
<path d="M0 0 C2.96052484 3.36423277 3.92289822 6.69159287 5 11 C4.34 11 3.68 11 3 11 C0.84694043 7.14243493 -0.39253254 4.44870215 0 0 Z " fill="#BE2830" transform="translate(975,243)"/>
<path d="M0 0 C1.49080078 0.02707031 1.49080078 0.02707031 3.01171875 0.0546875 C3.77097656 0.07789062 4.53023437 0.10109375 5.3125 0.125 C5.3125 0.455 5.3125 0.785 5.3125 1.125 C3.73163952 1.49004603 2.14766093 1.84160506 0.5625 2.1875 C-0.31921875 2.38472656 -1.2009375 2.58195312 -2.109375 2.78515625 C-4.67429028 3.12325872 -6.25841639 2.93658635 -8.6875 2.125 C-5.26655758 -0.15562828 -4.00562778 -0.09425007 0 0 Z " fill="#C11C25" transform="translate(630.6875,114.875)"/>
<path d="M0 0 C3.78383679 0.92493788 5.56693694 1.39371171 7.875 4.625 C8.431875 5.800625 8.431875 5.800625 9 7 C6 7 6 7 4.39453125 5.46875 C3.87246094 4.8190625 3.35039063 4.169375 2.8125 3.5 C2.28269531 2.8503125 1.75289062 2.200625 1.20703125 1.53125 C0.80871094 1.0259375 0.41039062 0.520625 0 0 Z " fill="#C82A1A" transform="translate(686,409)"/>
<path d="M0 0 C1.9451 2.91765 2.45276317 4.62537285 3 8 C3.99 8 4.98 8 6 8 C6 8.66 6 9.32 6 10 C4.02 9.34 2.04 8.68 0 8 C0 5.36 0 2.72 0 0 Z " fill="#E7A451" transform="translate(476,365)"/>
<path d="M0 0 C0.33 0.99 0.66 1.98 1 3 C-0.14453125 4.82421875 -0.14453125 4.82421875 -1.8125 6.6875 C-2.35519531 7.31011719 -2.89789063 7.93273437 -3.45703125 8.57421875 C-5 10 -5 10 -7 10 C-5.33248852 6.05860922 -2.77289351 3.2107188 0 0 Z " fill="#BE343C" transform="translate(445,163)"/>
<path d="M0 0 C3.21043882 1.38188453 5.04936365 2.92421903 7.25 5.625 C8.03117188 6.57246094 8.03117188 6.57246094 8.828125 7.5390625 C9.40820312 8.26222656 9.40820312 8.26222656 10 9 C6.59324436 7.36562896 3.83349184 5.52716839 1 3 C0.67 2.01 0.34 1.02 0 0 Z " fill="#FE8932" transform="translate(777,501)"/>
<path d="M0 0 C3.43595166 1.52708963 6.11912454 3.59927045 9 6 C8.67 6.99 8.34 7.98 8 9 C6.84775972 8.07038578 5.70340824 7.1309875 4.5625 6.1875 C3.60537109 5.40439453 3.60537109 5.40439453 2.62890625 4.60546875 C1 3 1 3 0 0 Z " fill="#FBBA7A" transform="translate(790,437)"/>
<path d="M0 0 C4 0 4 0 5.484375 1.3125 C6.65625 2.875 7.828125 4.4375 9 6 C8.67 6.66 8.34 7.32 8 8 C6.66372225 6.85760183 5.33104612 5.71098945 4 4.5625 C3.2575 3.92441406 2.515 3.28632813 1.75 2.62890625 C1.1725 2.09136719 0.595 1.55382812 0 1 C0 0.67 0 0.34 0 0 Z " fill="#F9B778" transform="translate(716,365)"/>
<path d="M0 0 C1.60080151 4.00200378 0.29279692 7.04556236 -1 11 C-1.99 11 -2.98 11 -4 11 C-3.52269162 9.5410574 -3.04308958 8.08286504 -2.5625 6.625 C-2.29566406 5.81289062 -2.02882813 5.00078125 -1.75390625 4.1640625 C-1 2 -1 2 0 0 Z " fill="#BF262E" transform="translate(390,249)"/>
<path d="M0 0 C1.258125 0.12375 2.51625 0.2475 3.8125 0.375 C4.87404297 0.47941406 4.87404297 0.47941406 5.95703125 0.5859375 C8 1 8 1 11 3 C11 3.66 11 4.32 11 5 C9.53932801 4.54917531 8.08151968 4.08906463 6.625 3.625 C5.81289063 3.36976563 5.00078125 3.11453125 4.1640625 2.8515625 C2 2 2 2 0 0 Z " fill="#FEEFC9" transform="translate(796,228)"/>
<path d="M0 0 C0.33 0.66 0.66 1.32 1 2 C-1.84936103 5.00765886 -4.23511958 7.27845212 -8 9 C-7.04270084 7.87411986 -6.08412105 6.7493285 -5.125 5.625 C-4.59132813 4.99851563 -4.05765625 4.37203125 -3.5078125 3.7265625 C-2.38567993 2.44163349 -1.20628025 1.20628025 0 0 Z " fill="#B71A21" transform="translate(463,145)"/>
<path d="M0 0 C0.33 0.99 0.66 1.98 1 3 C-1.31 4.98 -3.62 6.96 -6 9 C-6.66 8.67 -7.32 8.34 -8 8 C-5.36 5.36 -2.72 2.72 0 0 Z " fill="#FFE2E8" transform="translate(909,603)"/>
<path d="M0 0 C3.36591866 1.44253657 5.51047079 3.33264727 8 6 C7.67 6.99 7.34 7.98 7 9 C5.83037314 7.69013727 4.66437056 6.3770374 3.5 5.0625 C2.8503125 4.33160156 2.200625 3.60070312 1.53125 2.84765625 C0 1 0 1 0 0 Z " fill="#C0292F" transform="translate(450,594)"/>
<path d="M0 0 C0.99 0.33 1.98 0.66 3 1 C0.36 2.98 -2.28 4.96 -5 7 C-5 6.01 -5 5.02 -5 4 C-4.34 4 -3.68 4 -3 4 C-3 3.34 -3 2.68 -3 2 C-2.01 1.34 -1.02 0.68 0 0 Z " fill="#FDD8DA" transform="translate(850,581)"/>
<path d="M0 0 C3.53600465 1.91135386 5.78972846 3.62642766 8 7 C7.01 7 6.02 7 5 7 C4.67 6.01 4.34 5.02 4 4 C1.99983534 2.79117904 1.99983534 2.79117904 0 2 C0 1.34 0 0.68 0 0 Z " fill="#CC250A" transform="translate(767,416)"/>
<path d="M0 0 C0.33 0 0.66 0 1 0 C1.45572917 2.01822917 1.91145833 4.03645833 2.3671875 6.0546875 C2.90474428 8.20719964 2.90474428 8.20719964 5 10 C4.67 10.99 4.34 11.98 4 13 C0.47726246 8.48649253 -0.45732667 5.71658336 0 0 Z " fill="#EDA935" transform="translate(811,355)"/>
<path d="M0 0 C1.14926266 0.95421808 2.29430541 1.91352045 3.4375 2.875 C4.07558594 3.40867187 4.71367188 3.94234375 5.37109375 4.4921875 C7 6 7 6 8 8 C4.82461668 7.65978036 3.97723135 6.97533396 1.75 4.5625 C0 2 0 2 0 0 Z " fill="#BD1A08" transform="translate(676,326)"/>
<path d="M0 0 C4.41889613 1.35021826 6.34345343 3.26115668 9 7 C8.67 7.66 8.34 8.32 8 9 C6.66368764 7.6905332 5.33102075 6.37734515 4 5.0625 C3.2575 4.33160156 2.515 3.60070312 1.75 2.84765625 C0 1 0 1 0 0 Z " fill="#BD210C" transform="translate(579,303)"/>
<path d="M0 0 C0.66 0.33 1.32 0.66 2 1 C1.01 2.485 1.01 2.485 0 4 C-0.99 4 -1.98 4 -3 4 C-3 4.66 -3 5.32 -3 6 C-4.32 5.67 -5.64 5.34 -7 5 C-4.69 3.35 -2.38 1.7 0 0 Z " fill="#BA222B" transform="translate(508,109)"/>
<path d="M0 0 C0.99 0.33 1.98 0.66 3 1 C3.66 4.3 4.32 7.6 5 11 C2.77174356 8.77174356 2.30760631 7.34238372 1.375 4.375 C1.11460937 3.55773437 0.85421875 2.74046875 0.5859375 1.8984375 C0.39257812 1.27195312 0.19921875 0.64546875 0 0 Z " fill="#F9C8CF" transform="translate(432,467)"/>
<path d="M0 0 C1.98 0.99 1.98 0.99 4 2 C4 2.66 4 3.32 4 4 C4.99 4.33 5.98 4.66 7 5 C7 5.66 7 6.32 7 7 C5.68 6.34 4.36 5.68 3 5 C3 4.34 3 3.68 3 3 C2.01 2.67 1.02 2.34 0 2 C0 1.34 0 0.68 0 0 Z " fill="#C72C17" transform="translate(707,429)"/>
<path d="M0 0 C-3.20336822 2.83374881 -5.78087253 3.5205537 -10 4 C-6.58908673 0.88145073 -4.68377325 -0.53528837 0 0 Z " fill="#FFF8D8" transform="translate(762,219)"/>
<path d="M0 0 C0.6875 1.6875 0.6875 1.6875 1 4 C-0.4375 6.75 -0.4375 6.75 -2 9 C-2.6875 7.3125 -2.6875 7.3125 -3 5 C-1.5625 2.25 -1.5625 2.25 0 0 Z " fill="#C21C24" transform="translate(410,211)"/>
</svg>
